<svg xmlns="http://www.w3.org/2000/svg" xmlns:xlink="http://www.w3.org/1999/xlink" width="40" zoomAndPan="magnify" viewBox="0 0 30 30.000001" height="40" preserveAspectRatio="xMidYMid meet" version="1.0"><defs><clipPath id="e41408e060"><path d="M 0.484375 7 L 14 7 L 14 16 L 0.484375 16 Z M 0.484375 7 " clip-rule="nonzero"/></clipPath><clipPath id="02d64ad0a5"><path d="M 14 5.59375 L 29 5.59375 L 29 15 L 14 15 Z M 14 5.59375 " clip-rule="nonzero"/></clipPath><clipPath id="4e04bb2ca4"><path d="M 16 15 L 29.515625 15 L 29.515625 23 L 16 23 Z M 16 15 " clip-rule="nonzero"/></clipPath><clipPath id="6817f7fa4e"><path d="M 1 16 L 16 16 L 16 23.742188 L 1 23.742188 Z M 1 16 " clip-rule="nonzero"/></clipPath></defs><path fill="#f7d101" d="M 16.753906 19.464844 L 17.734375 18.699219 C 17.960938 18.800781 18.207031 18.875 18.449219 18.933594 L 18.796875 20.144531 C 19 20.167969 19.203125 20.179688 19.414062 20.179688 C 19.621094 20.179688 19.824219 20.167969 20.027344 20.144531 L 20.375 18.933594 C 20.625 18.875 20.863281 18.800781 21.089844 18.699219 L 22.070312 19.464844 C 22.433594 19.261719 22.761719 19.011719 23.070312 18.726562 L 22.652344 17.535156 C 22.816406 17.339844 22.964844 17.140625 23.09375 16.914062 L 24.335938 16.949219 C 24.503906 16.574219 24.632812 16.175781 24.71875 15.757812 L 23.691406 15.042969 C 23.703125 14.917969 23.710938 14.789062 23.710938 14.660156 C 23.710938 14.527344 23.703125 14.40625 23.691406 14.273438 L 24.71875 13.558594 C 24.640625 13.148438 24.503906 12.746094 24.335938 12.367188 L 23.09375 12.402344 C 22.964844 12.183594 22.816406 11.976562 22.652344 11.78125 L 23.070312 10.589844 C 22.769531 10.304688 22.433594 10.058594 22.070312 9.851562 L 21.089844 10.621094 C 20.863281 10.519531 20.621094 10.441406 20.375 10.382812 L 20.027344 9.171875 C 19.824219 9.148438 19.621094 9.136719 19.414062 9.136719 C 19.203125 9.136719 19 9.148438 18.796875 9.171875 L 18.449219 10.382812 C 18.199219 10.441406 17.960938 10.519531 17.734375 10.621094 L 16.753906 9.851562 C 16.394531 10.058594 16.0625 10.304688 15.753906 10.589844 L 16.171875 11.78125 C 16.011719 11.976562 15.859375 12.179688 15.730469 12.402344 L 14.488281 12.367188 C 14.320312 12.746094 14.191406 13.140625 14.105469 13.558594 L 15.132812 14.273438 C 15.121094 14.398438 15.117188 14.527344 15.117188 14.660156 C 15.117188 14.789062 15.121094 14.914062 15.132812 15.042969 L 14.105469 15.761719 C 14.1875 16.175781 14.320312 16.578125 14.488281 16.957031 L 15.730469 16.921875 C 15.859375 17.140625 16.011719 17.347656 16.171875 17.542969 L 15.753906 18.734375 C 16.058594 19.011719 16.394531 19.261719 16.753906 19.464844 Z M 19.417969 12.296875 C 20.707031 12.296875 21.746094 13.359375 21.746094 14.664062 C 21.746094 15.96875 20.703125 17.035156 19.417969 17.035156 C 18.128906 17.035156 17.089844 15.96875 17.089844 14.664062 C 17.089844 13.359375 18.128906 12.296875 19.417969 12.296875 Z M 19.417969 12.296875 " fill-opacity="1" fill-rule="nonzero"/><path fill="#f7d101" d="M 13.34375 15.296875 C 13.375 15.089844 13.390625 14.882812 13.390625 14.671875 C 13.390625 14.457031 13.375 14.246094 13.34375 14.042969 L 12.574219 13.789062 C 12.519531 13.585938 12.449219 13.390625 12.363281 13.199219 L 12.792969 12.503906 C 12.578125 12.144531 12.3125 11.816406 12 11.539062 L 11.25 11.855469 C 11.082031 11.734375 10.902344 11.628906 10.714844 11.539062 L 10.605469 10.726562 C 10.222656 10.59375 9.816406 10.519531 9.390625 10.507812 L 9.011719 11.234375 C 8.804688 11.25 8.601562 11.285156 8.402344 11.339844 L 7.800781 10.785156 C 7.410156 10.9375 7.050781 11.152344 6.730469 11.410156 L 6.898438 12.214844 C 6.753906 12.363281 6.621094 12.519531 6.503906 12.691406 L 5.691406 12.664062 C 5.496094 13.027344 5.355469 13.425781 5.269531 13.84375 L 5.90625 14.351562 C 5.894531 14.457031 5.890625 14.558594 5.890625 14.664062 C 5.890625 14.769531 5.894531 14.878906 5.90625 14.976562 L 5.269531 15.484375 C 5.351562 15.90625 5.496094 16.300781 5.691406 16.667969 L 6.503906 16.636719 C 6.621094 16.808594 6.753906 16.96875 6.898438 17.117188 L 6.730469 17.917969 C 7.050781 18.179688 7.410156 18.390625 7.800781 18.546875 L 8.402344 17.988281 C 8.601562 18.042969 8.804688 18.078125 9.011719 18.097656 L 9.390625 18.824219 C 9.816406 18.8125 10.222656 18.738281 10.605469 18.605469 L 10.714844 17.789062 C 10.902344 17.699219 11.082031 17.59375 11.25 17.476562 L 12 17.789062 C 12.304688 17.511719 12.578125 17.1875 12.792969 16.828125 L 12.363281 16.128906 C 12.449219 15.941406 12.519531 15.746094 12.574219 15.539062 Z M 9.332031 16.460938 C 8.355469 16.460938 7.566406 15.65625 7.566406 14.664062 C 7.566406 13.671875 8.355469 12.871094 9.332031 12.871094 C 10.308594 12.871094 11.097656 13.671875 11.097656 14.664062 C 11.097656 15.65625 10.308594 16.460938 9.332031 16.460938 Z M 9.332031 16.460938 " fill-opacity="1" fill-rule="nonzero"/><g clip-path="url(#e41408e060)"><path fill="#f7d101" d="M 4.21875 13.136719 L 3.6875 12.644531 L 2.707031 13.730469 L 2.707031 9.832031 C 2.707031 8.753906 3.574219 7.867188 4.640625 7.867188 L 13.480469 7.867188 L 13.480469 7.140625 L 4.640625 7.140625 C 3.179688 7.140625 1.992188 8.34375 1.992188 9.832031 L 1.992188 13.730469 L 1.011719 12.644531 L 0.484375 13.136719 L 2.347656 15.207031 Z M 4.21875 13.136719 " fill-opacity="1" fill-rule="nonzero"/></g><g clip-path="url(#02d64ad0a5)"><path fill="#f7d101" d="M 16.992188 8.863281 L 15.921875 7.867188 L 25.363281 7.867188 C 26.425781 7.867188 27.292969 8.746094 27.292969 9.832031 L 27.292969 14.671875 L 28.007812 14.671875 L 28.007812 9.832031 C 28.007812 8.351562 26.820312 7.140625 25.359375 7.140625 L 15.921875 7.140625 L 16.992188 6.140625 L 16.507812 5.605469 L 14.472656 7.5 L 16.507812 9.402344 Z M 16.992188 8.863281 " fill-opacity="1" fill-rule="nonzero"/></g><g clip-path="url(#4e04bb2ca4)"><path fill="#f7d101" d="M 29.515625 17.753906 L 27.652344 15.679688 L 25.789062 17.753906 L 26.316406 18.242188 L 27.296875 17.15625 L 27.296875 19.507812 C 27.296875 20.589844 26.433594 21.476562 25.371094 21.476562 L 16.527344 21.476562 L 16.527344 22.199219 L 25.363281 22.199219 C 26.820312 22.199219 28.011719 20.996094 28.011719 19.507812 L 28.011719 17.15625 L 28.992188 18.242188 Z M 29.515625 17.753906 " fill-opacity="1" fill-rule="nonzero"/></g><g clip-path="url(#6817f7fa4e)"><path fill="#f7d101" d="M 13.007812 20.46875 L 14.078125 21.46875 L 4.640625 21.46875 C 3.578125 21.46875 2.707031 20.589844 2.707031 19.503906 L 2.707031 16.21875 L 1.992188 16.21875 L 1.992188 19.503906 C 1.992188 20.984375 3.179688 22.195312 4.640625 22.195312 L 14.082031 22.195312 L 13.015625 23.195312 L 13.496094 23.730469 L 15.535156 21.835938 L 13.492188 19.933594 Z M 13.007812 20.46875 " fill-opacity="1" fill-rule="nonzero"/></g></svg>