<svg xmlns="http://www.w3.org/2000/svg" xmlns:xlink="http://www.w3.org/1999/xlink" width="293" zoomAndPan="magnify" viewBox="0 0 219.75 30.000001" height="40" preserveAspectRatio="xMidYMid meet" version="1.0"><defs><clipPath id="5b2a9793ef"><path d="M 3.421875 0 L 216.085938 0 L 216.085938 29.03125 L 3.421875 29.03125 Z M 3.421875 0 " clip-rule="nonzero"/></clipPath><clipPath id="1e14a52edc"><path d="M 4.875 -0.261719 L 214.875 -0.261719 C 215.675781 -0.261719 216.328125 0.386719 216.328125 1.191406 L 216.328125 27.613281 C 216.328125 28.414062 215.675781 29.066406 214.875 29.066406 L 4.875 29.066406 C 4.074219 29.066406 3.421875 28.414062 3.421875 27.613281 L 3.421875 1.191406 C 3.421875 0.386719 4.074219 -0.261719 4.875 -0.261719 " clip-rule="nonzero"/></clipPath><clipPath id="ed23981341"><path d="M 3.425781 0 L 216.085938 0 L 216.085938 28.804688 L 3.425781 28.804688 Z M 3.425781 0 " clip-rule="nonzero"/></clipPath><clipPath id="a1a8ea5e48"><path d="M 4.878906 -0.261719 L 214.871094 -0.261719 C 215.671875 -0.261719 216.324219 0.382812 216.324219 1.179688 L 216.324219 27.363281 C 216.324219 28.160156 215.671875 28.804688 214.871094 28.804688 L 4.878906 28.804688 C 4.078125 28.804688 3.425781 28.160156 3.425781 27.363281 L 3.425781 1.179688 C 3.425781 0.382812 4.078125 -0.261719 4.878906 -0.261719 " clip-rule="nonzero"/></clipPath><clipPath id="509f1810d0"><path d="M 20.484375 2.34375 L 42 2.34375 L 42 25 L 20.484375 25 Z M 20.484375 2.34375 " clip-rule="nonzero"/></clipPath><clipPath id="8be1f24401"><path d="M 22 2.34375 L 41 2.34375 L 41 14 L 22 14 Z M 22 2.34375 " clip-rule="nonzero"/></clipPath><clipPath id="7721fb66cc"><path d="M 6.328125 6.121094 L 17.957031 6.121094 L 17.957031 22 L 6.328125 22 Z M 6.328125 6.121094 " clip-rule="nonzero"/></clipPath><clipPath id="bb7b87c14b"><path d="M 201.789062 5 L 213.414062 5 L 213.414062 21.625 L 201.789062 21.625 Z M 201.789062 5 " clip-rule="nonzero"/></clipPath></defs><g clip-path="url(#5b2a9793ef)"><g clip-path="url(#1e14a52edc)"><path fill="#ffffff" d="M 3.421875 -0.261719 L 216.371094 -0.261719 L 216.371094 29.03125 L 3.421875 29.03125 Z M 3.421875 -0.261719 " fill-opacity="1" fill-rule="nonzero"/></g></g><g clip-path="url(#ed23981341)"><g clip-path="url(#a1a8ea5e48)"><path stroke-linecap="butt" transform="matrix(0.726632, 0, 0, 0.720162, 3.426646, -0.262029)" fill="none" stroke-linejoin="miter" d="M 1.998618 0.000430526 L 290.992421 0.000430526 C 292.094466 0.000430526 292.99223 0.895412 292.99223 2.001934 L 292.99223 38.359862 C 292.99223 39.466384 292.094466 40.361365 290.992421 40.361365 L 1.998618 40.361365 C 0.896573 40.361365 -0.00119033 39.466384 -0.00119033 38.359862 L -0.00119033 2.001934 C -0.00119033 0.895412 0.896573 0.000430526 1.998618 0.000430526 " stroke="#000000" stroke-width="4" stroke-opacity="1" stroke-miterlimit="4"/></g></g><g clip-path="url(#509f1810d0)"><path fill="#fc8001" d="M 31.21875 24.089844 C 37.144531 24.089844 41.945312 19.222656 41.945312 13.214844 C 41.945312 7.210938 37.144531 2.34375 31.21875 2.34375 C 25.296875 2.34375 20.492188 7.210938 20.492188 13.214844 C 20.492188 19.222656 25.296875 24.089844 31.21875 24.089844 Z M 31.21875 24.089844 " fill-opacity="1" fill-rule="nonzero"/></g><g clip-path="url(#8be1f24401)"><path fill="#fdcc01" d="M 31.238281 2.949219 C 26.289062 2.949219 22.277344 7.015625 22.277344 12.035156 C 22.277344 12.523438 22.316406 13.003906 22.386719 13.472656 C 23.546875 10.402344 26.714844 8.195312 30.4375 8.195312 C 33.550781 8.195312 36.269531 9.734375 37.757812 12.027344 C 37.769531 12.027344 37.777344 12.027344 37.785156 12.027344 C 38.75 12.027344 39.558594 12.339844 40.160156 12.867188 C 40.1875 12.59375 40.199219 12.3125 40.199219 12.03125 C 40.199219 7.015625 36.1875 2.949219 31.238281 2.949219 Z M 31.238281 2.949219 " fill-opacity="1" fill-rule="nonzero"/></g><path fill="#fd0024" d="M 40.164062 12.867188 C 39.558594 12.335938 38.75 12.027344 37.789062 12.027344 C 37.777344 12.027344 37.769531 12.027344 37.761719 12.027344 C 35.125 12.042969 32.347656 14.367188 31.554688 17.230469 C 31.132812 18.753906 31.355469 20.125 32.054688 21.078125 C 31.785156 21.105469 31.515625 21.121094 31.238281 21.121094 C 26.773438 21.121094 23.070312 17.808594 22.390625 13.472656 C 22.085938 14.28125 21.917969 15.148438 21.917969 16.050781 C 21.917969 18.277344 22.921875 20.28125 24.53125 21.710938 C 25.527344 22.511719 26.664062 23.144531 27.898438 23.550781 C 28.945312 23.898438 30.0625 24.085938 31.222656 24.085938 C 34.4375 24.085938 37.320312 22.648438 39.285156 20.378906 C 39.960938 19.59375 40.53125 18.714844 40.964844 17.757812 C 41.03125 17.582031 41.089844 17.410156 41.136719 17.230469 C 41.640625 15.40625 41.21875 13.796875 40.164062 12.867188 Z M 40.164062 12.867188 " fill-opacity="1" fill-rule="nonzero"/><path fill="#000000" d="M 98.390625 12.355469 L 98.390625 21.3125 C 98.390625 21.402344 98.316406 21.476562 98.230469 21.476562 L 96.164062 21.476562 C 96.074219 21.476562 96.003906 21.402344 96.003906 21.3125 L 96.003906 13.140625 C 96.003906 10.554688 94.605469 9.035156 92.199219 9.035156 C 89.910156 9.035156 88.121094 10.644531 88.121094 13.199219 L 88.121094 21.3125 C 88.121094 21.402344 88.050781 21.476562 87.960938 21.476562 L 85.894531 21.476562 C 85.804688 21.476562 85.734375 21.402344 85.734375 21.3125 L 85.734375 13.140625 C 85.734375 10.554688 84.335938 9.035156 81.929688 9.035156 C 79.703125 9.035156 77.835938 10.585938 77.835938 13.199219 L 77.835938 21.3125 C 77.835938 21.402344 77.765625 21.476562 77.675781 21.476562 L 75.625 21.476562 C 75.535156 21.476562 75.464844 21.402344 75.464844 21.3125 L 75.464844 7.203125 C 75.464844 7.113281 75.535156 7.039062 75.625 7.039062 L 77.660156 7.039062 C 77.75 7.039062 77.824219 7.113281 77.824219 7.203125 L 77.824219 8.40625 C 77.824219 8.558594 78.007812 8.628906 78.101562 8.515625 C 79.238281 7.207031 80.878906 6.742188 82.355469 6.742188 C 84.585938 6.742188 86.371094 7.707031 87.332031 9.316406 C 87.394531 9.425781 87.542969 9.425781 87.609375 9.316406 C 88.773438 7.382812 90.820312 6.742188 92.628906 6.742188 C 96.046875 6.746094 98.390625 8.988281 98.390625 12.355469 Z M 98.390625 12.355469 " fill-opacity="1" fill-rule="nonzero"/><path fill="#000000" d="M 115.128906 14.054688 C 115.128906 18.292969 112.085938 21.367188 108.207031 21.367188 C 106.199219 21.367188 104.671875 20.644531 103.601562 19.507812 C 103.503906 19.402344 103.328125 19.476562 103.328125 19.625 L 103.328125 26.8125 C 103.328125 26.90625 103.253906 26.976562 103.164062 26.976562 L 101.117188 26.976562 C 101.027344 26.976562 100.953125 26.90625 100.953125 26.8125 L 100.953125 7.207031 C 100.953125 7.117188 101.027344 7.042969 101.117188 7.042969 L 103.164062 7.042969 C 103.253906 7.042969 103.328125 7.117188 103.328125 7.207031 L 103.328125 8.488281 C 103.328125 8.632812 103.503906 8.707031 103.601562 8.601562 C 104.675781 7.46875 106.203125 6.746094 108.207031 6.746094 C 112.082031 6.746094 115.128906 9.816406 115.128906 14.054688 Z M 103.179688 14.054688 C 103.179688 16.933594 105.132812 19.109375 107.929688 19.109375 C 110.800781 19.109375 112.679688 16.847656 112.679688 14.054688 C 112.679688 11.265625 110.757812 9.019531 107.929688 9.019531 C 105.132812 9.019531 103.179688 11.1875 103.179688 14.054688 Z M 103.179688 14.054688 " fill-opacity="1" fill-rule="nonzero"/><path fill="#000000" d="M 142.046875 10.003906 C 142 10.085938 141.898438 10.113281 141.820312 10.0625 C 140.90625 9.484375 139.230469 8.855469 137.503906 8.855469 C 135.609375 8.855469 134.386719 9.667969 134.386719 10.941406 C 134.386719 12.0625 135.390625 12.578125 137.066406 12.785156 L 138.671875 12.992188 C 141.613281 13.390625 143.347656 14.644531 143.347656 16.964844 C 143.347656 19.636719 140.988281 21.367188 137.214844 21.367188 C 135.550781 21.367188 133.3125 20.96875 131.511719 19.65625 C 131.441406 19.605469 131.421875 19.507812 131.46875 19.433594 L 132.402344 17.914062 C 132.449219 17.835938 132.558594 17.8125 132.636719 17.871094 C 133.65625 18.632812 135.019531 19.253906 137.230469 19.253906 C 139.503906 19.253906 140.902344 18.5 140.902344 17.113281 C 140.902344 16.078125 140 15.429688 138.117188 15.191406 L 136.515625 15 C 133.414062 14.617188 131.914062 13.199219 131.914062 11.074219 C 131.914062 8.386719 134.113281 6.761719 137.480469 6.761719 C 139.597656 6.761719 141.539062 7.316406 142.875 8.195312 C 142.949219 8.246094 142.96875 8.339844 142.929688 8.417969 Z M 142.046875 10.003906 " fill-opacity="1" fill-rule="nonzero"/><path fill="#000000" d="M 154.195312 10.003906 C 154.152344 10.085938 154.050781 10.113281 153.972656 10.0625 C 153.058594 9.484375 151.382812 8.855469 149.65625 8.855469 C 147.761719 8.855469 146.535156 9.667969 146.535156 10.941406 C 146.535156 12.0625 147.542969 12.578125 149.21875 12.785156 L 150.824219 12.992188 C 153.765625 13.390625 155.5 14.644531 155.5 16.964844 C 155.5 19.636719 153.140625 21.367188 149.367188 21.367188 C 147.699219 21.367188 145.460938 20.96875 143.660156 19.65625 C 143.59375 19.605469 143.574219 19.507812 143.621094 19.433594 L 144.550781 17.914062 C 144.601562 17.835938 144.710938 17.8125 144.785156 17.871094 C 145.804688 18.632812 147.167969 19.253906 149.382812 19.253906 C 151.65625 19.253906 153.054688 18.5 153.054688 17.113281 C 153.054688 16.078125 152.152344 15.429688 150.269531 15.191406 L 148.667969 15 C 145.566406 14.617188 144.066406 13.199219 144.066406 11.074219 C 144.066406 8.386719 146.265625 6.761719 149.632812 6.761719 C 151.75 6.761719 153.691406 7.316406 155.027344 8.195312 C 155.101562 8.246094 155.121094 8.339844 155.082031 8.417969 Z M 154.195312 10.003906 " fill-opacity="1" fill-rule="nonzero"/><path fill="#000000" d="M 56.378906 17.667969 C 56.316406 17.605469 56.21875 17.605469 56.15625 17.667969 C 54.109375 19.628906 51.21875 19.570312 49.296875 17.625 C 47.332031 15.632812 47.320312 12.632812 49.371094 10.554688 C 51.382812 8.515625 54.253906 8.496094 56.222656 10.378906 C 56.285156 10.441406 56.382812 10.441406 56.445312 10.378906 L 57.804688 9.003906 C 57.867188 8.9375 57.867188 8.828125 57.800781 8.765625 C 54.835938 5.875 50.515625 5.90625 47.648438 8.808594 C 44.746094 11.753906 44.753906 16.214844 47.722656 19.222656 C 50.644531 22.1875 54.972656 22.25 57.878906 19.429688 C 57.945312 19.363281 57.945312 19.253906 57.882812 19.1875 Z M 56.378906 17.667969 " fill-opacity="1" fill-rule="nonzero"/><path fill="#000000" d="M 61.433594 14.050781 C 61.523438 14.050781 61.59375 13.980469 61.59375 13.890625 C 61.675781 11.039062 63.757812 9.007812 66.472656 9.007812 C 69.253906 9.007812 71.355469 11.117188 71.355469 14.058594 C 71.355469 16.941406 69.335938 19.015625 66.628906 19.09375 C 66.542969 19.09375 66.472656 19.164062 66.472656 19.253906 L 66.472656 21.199219 C 66.472656 21.292969 66.546875 21.367188 66.636719 21.367188 C 70.75 21.285156 73.785156 18.167969 73.785156 14.058594 C 73.785156 9.894531 70.667969 6.746094 66.472656 6.746094 C 62.335938 6.746094 59.230469 9.804688 59.144531 13.878906 C 59.140625 13.972656 59.21875 14.050781 59.308594 14.050781 Z M 61.433594 14.050781 " fill-opacity="1" fill-rule="nonzero"/><path fill="#000000" d="M 129.882812 7.039062 L 127.832031 7.039062 C 127.742188 7.039062 127.671875 7.113281 127.671875 7.203125 L 127.671875 8.457031 C 126.410156 7.3125 124.730469 6.632812 122.835938 6.632812 C 118.726562 6.632812 115.625 9.796875 115.625 14.046875 C 115.625 18.242188 118.636719 21.386719 122.660156 21.476562 C 122.753906 21.476562 122.832031 21.398438 122.832031 21.308594 L 122.832031 19.15625 C 122.832031 19.066406 122.761719 18.996094 122.671875 18.996094 C 119.859375 18.914062 117.855469 16.800781 117.855469 14.046875 C 117.855469 11.226562 119.9375 9.097656 122.839844 9.097656 C 125.308594 9.097656 127.671875 10.851562 127.671875 12.851562 L 127.671875 21.308594 C 127.671875 21.398438 127.746094 21.472656 127.835938 21.472656 L 129.882812 21.472656 C 129.972656 21.472656 130.046875 21.398438 130.046875 21.308594 L 130.046875 7.199219 C 130.046875 7.117188 129.972656 7.039062 129.882812 7.039062 Z M 129.882812 7.039062 " fill-opacity="1" fill-rule="nonzero"/><path fill="#fdcc01" d="M 68.011719 15.5625 L 68.703125 12.941406 C 68.855469 12.378906 68.347656 11.863281 67.792969 12.015625 L 65.207031 12.71875 C 64.652344 12.871094 64.464844 13.570312 64.871094 13.984375 L 66.765625 15.902344 C 67.171875 16.3125 67.863281 16.125 68.011719 15.5625 Z M 68.011719 15.5625 " fill-opacity="1" fill-rule="nonzero"/><path fill="#000000" d="M 160.761719 19.738281 C 160.761719 19.972656 160.71875 20.195312 160.628906 20.414062 C 160.542969 20.628906 160.417969 20.820312 160.253906 20.984375 C 160.089844 21.152344 159.902344 21.277344 159.6875 21.367188 C 159.476562 21.457031 159.253906 21.503906 159.023438 21.503906 C 158.792969 21.503906 158.570312 21.457031 158.355469 21.367188 C 158.144531 21.277344 157.953125 21.152344 157.792969 20.984375 C 157.628906 20.820312 157.503906 20.628906 157.414062 20.414062 C 157.324219 20.195312 157.28125 19.972656 157.28125 19.738281 C 157.28125 19.503906 157.324219 19.277344 157.414062 19.0625 C 157.503906 18.847656 157.628906 18.65625 157.792969 18.492188 C 157.953125 18.324219 158.144531 18.199219 158.355469 18.109375 C 158.570312 18.019531 158.792969 17.972656 159.023438 17.972656 C 159.253906 17.972656 159.476562 18.019531 159.6875 18.109375 C 159.902344 18.199219 160.089844 18.324219 160.253906 18.492188 C 160.417969 18.65625 160.542969 18.847656 160.628906 19.0625 C 160.71875 19.277344 160.761719 19.503906 160.761719 19.738281 Z M 160.761719 19.738281 " fill-opacity="1" fill-rule="nonzero"/><path fill="#000000" d="M 197.914062 16.277344 C 196.230469 16.277344 195.453125 15.40625 195.453125 13.699219 L 195.453125 3.195312 L 190.296875 3.195312 L 190.296875 10.996094 C 189.125 8.445312 186.570312 6.675781 183.609375 6.675781 C 180.648438 6.675781 178.09375 8.441406 176.921875 10.996094 L 176.921875 6.832031 L 171.828125 6.832031 L 171.828125 14.171875 C 171.828125 15.496094 171.140625 16.394531 169.988281 16.394531 C 168.839844 16.394531 168.152344 15.496094 168.152344 14.171875 L 168.152344 6.832031 L 162.992188 6.832031 L 162.992188 14.238281 C 162.992188 18.773438 165.738281 21.625 169.988281 21.625 C 173.402344 21.625 175.839844 19.703125 176.636719 16.59375 C 177.636719 19.519531 180.378906 21.625 183.605469 21.625 C 186.792969 21.625 189.503906 19.578125 190.535156 16.710938 C 191.296875 20.039062 193.78125 21.511719 197.109375 21.511719 L 198.417969 21.511719 L 198.417969 16.28125 L 197.914062 16.28125 Z M 183.609375 16.394531 C 182.390625 16.394531 181.394531 15.382812 181.394531 14.148438 C 181.394531 12.914062 182.394531 11.90625 183.609375 11.90625 C 184.828125 11.90625 185.824219 12.917969 185.824219 14.148438 C 185.824219 15.382812 184.824219 16.394531 183.609375 16.394531 Z M 183.609375 16.394531 " fill-opacity="1" fill-rule="nonzero"/><g clip-path="url(#7721fb66cc)"><path fill="#fece00" d="M 6.789062 13.726562 C 6.667969 13.753906 6.503906 13.785156 6.34375 13.785156 L 6.34375 12.066406 L 6.332031 12.066406 C 6.332031 12.066406 6.328125 12.066406 6.328125 12.066406 C 6.328125 12.066406 6.332031 12.066406 6.335938 12.066406 C 6.34375 12.0625 6.375 12.058594 6.429688 12.046875 C 6.515625 12.027344 6.621094 12 6.742188 11.960938 C 6.988281 11.890625 7.261719 11.792969 7.46875 11.707031 C 8.605469 11.242188 9.574219 10.453125 10.253906 9.445312 C 10.894531 8.492188 11.253906 7.386719 11.292969 6.246094 L 11.292969 6.128906 L 12.992188 6.128906 C 12.992188 7.335938 13.351562 8.4375 14.03125 9.445312 C 14.710938 10.453125 15.679688 11.242188 16.816406 11.707031 C 17.023438 11.792969 17.292969 11.890625 17.539062 11.960938 C 17.664062 12 17.769531 12.027344 17.855469 12.046875 C 17.910156 12.058594 17.941406 12.0625 17.949219 12.066406 C 17.953125 12.066406 17.957031 12.066406 17.957031 12.066406 C 17.957031 12.066406 17.953125 12.066406 17.953125 12.066406 C 17.949219 12.066406 17.945312 12.066406 17.941406 12.066406 L 17.941406 13.785156 C 17.78125 13.785156 17.613281 13.753906 17.492188 13.726562 C 17.355469 13.695312 17.207031 13.65625 17.058594 13.609375 C 16.765625 13.523438 16.441406 13.410156 16.183594 13.300781 C 14.925781 12.785156 13.824219 11.960938 12.988281 10.902344 L 12.988281 21.847656 L 11.292969 21.847656 L 11.292969 10.910156 C 10.453125 11.964844 9.355469 12.789062 8.101562 13.300781 C 7.84375 13.410156 7.519531 13.523438 7.222656 13.609375 C 7.078125 13.65625 6.925781 13.695312 6.789062 13.726562 Z M 6.789062 13.726562 " fill-opacity="1" fill-rule="evenodd"/></g><g clip-path="url(#bb7b87c14b)"><path fill="#fece00" d="M 212.953125 14.023438 C 213.074219 13.996094 213.238281 13.964844 213.398438 13.964844 L 213.398438 15.683594 L 213.410156 15.683594 C 213.410156 15.683594 213.414062 15.683594 213.414062 15.683594 C 213.414062 15.683594 213.410156 15.683594 213.410156 15.683594 C 213.398438 15.6875 213.367188 15.691406 213.3125 15.703125 C 213.230469 15.722656 213.121094 15.75 213 15.785156 C 212.753906 15.859375 212.480469 15.957031 212.277344 16.039062 C 211.136719 16.507812 210.167969 17.296875 209.488281 18.304688 C 208.847656 19.253906 208.488281 20.363281 208.453125 21.503906 L 208.453125 21.621094 L 206.753906 21.621094 C 206.753906 20.414062 206.390625 19.3125 205.710938 18.304688 C 205.03125 17.296875 204.0625 16.507812 202.925781 16.039062 C 202.71875 15.957031 202.449219 15.859375 202.203125 15.785156 C 202.078125 15.75 201.972656 15.722656 201.886719 15.703125 C 201.832031 15.691406 201.804688 15.6875 201.792969 15.683594 C 201.789062 15.683594 201.789062 15.683594 201.789062 15.683594 C 201.789062 15.683594 201.789062 15.683594 201.792969 15.683594 C 201.792969 15.683594 201.796875 15.683594 201.800781 15.683594 L 201.800781 13.964844 C 201.960938 13.964844 202.128906 13.996094 202.25 14.023438 C 202.386719 14.054688 202.535156 14.09375 202.683594 14.136719 C 202.976562 14.226562 203.300781 14.339844 203.5625 14.445312 C 204.816406 14.960938 205.917969 15.789062 206.757812 16.847656 L 206.757812 5.898438 L 208.453125 5.898438 L 208.453125 16.839844 C 209.289062 15.785156 210.386719 14.960938 211.640625 14.445312 C 211.898438 14.339844 212.222656 14.226562 212.519531 14.136719 C 212.664062 14.09375 212.816406 14.054688 212.953125 14.023438 Z M 212.953125 14.023438 " fill-opacity="1" fill-rule="evenodd"/></g></svg>