<svg xmlns="http://www.w3.org/2000/svg" xmlns:xlink="http://www.w3.org/1999/xlink" width="293" zoomAndPan="magnify" viewBox="0 0 219.75 30.000001" height="40" preserveAspectRatio="xMidYMid meet" version="1.0"><defs><clipPath id="98adf865a8"><path d="M 3.421875 0 L 29 0 L 29 26 L 3.421875 26 Z M 3.421875 0 " clip-rule="nonzero"/></clipPath></defs><g clip-path="url(#98adf865a8)"><path fill="#fc8001" d="M 16.203125 25.582031 C 23.261719 25.582031 28.980469 19.855469 28.980469 12.792969 C 28.980469 5.726562 23.261719 0 16.203125 0 C 9.148438 0 3.425781 5.726562 3.425781 12.792969 C 3.425781 19.855469 9.148438 25.582031 16.203125 25.582031 Z M 16.203125 25.582031 " fill-opacity="1" fill-rule="nonzero"/></g><path fill="#fdcc01" d="M 16.226562 0.710938 C 10.332031 0.710938 5.550781 5.5 5.550781 11.402344 C 5.550781 11.976562 5.597656 12.542969 5.683594 13.089844 C 7.066406 9.480469 10.835938 6.886719 15.273438 6.886719 C 18.980469 6.886719 22.21875 8.695312 23.992188 11.394531 C 24.003906 11.394531 24.011719 11.394531 24.023438 11.394531 C 25.171875 11.394531 26.136719 11.757812 26.855469 12.382812 C 26.882812 12.058594 26.902344 11.730469 26.902344 11.398438 C 26.902344 5.496094 22.121094 0.710938 16.226562 0.710938 Z M 16.226562 0.710938 " fill-opacity="1" fill-rule="nonzero"/><path fill="#fd0024" d="M 26.855469 12.382812 C 26.136719 11.757812 25.175781 11.394531 24.027344 11.394531 C 24.015625 11.394531 24.007812 11.394531 23.996094 11.394531 C 20.855469 11.414062 17.546875 14.144531 16.605469 17.511719 C 16.101562 19.308594 16.367188 20.921875 17.199219 22.042969 C 16.878906 22.070312 16.554688 22.089844 16.226562 22.089844 C 10.90625 22.089844 6.496094 18.191406 5.6875 13.089844 C 5.324219 14.042969 5.125 15.0625 5.125 16.128906 C 5.125 18.746094 6.320312 21.101562 8.238281 22.785156 C 9.421875 23.730469 10.777344 24.472656 12.25 24.953125 C 13.496094 25.359375 14.828125 25.582031 16.207031 25.582031 C 20.039062 25.582031 23.46875 23.890625 25.8125 21.21875 C 26.617188 20.296875 27.296875 19.261719 27.8125 18.132812 C 27.890625 17.929688 27.957031 17.722656 28.015625 17.511719 C 28.617188 15.367188 28.113281 13.472656 26.855469 12.382812 Z M 26.855469 12.382812 " fill-opacity="1" fill-rule="nonzero"/><path fill="#000000" d="M 96.210938 11.78125 L 96.210938 22.316406 C 96.210938 22.421875 96.125 22.507812 96.019531 22.507812 L 93.558594 22.507812 C 93.453125 22.507812 93.367188 22.421875 93.367188 22.316406 L 93.367188 12.703125 C 93.367188 9.664062 91.703125 7.871094 88.839844 7.871094 C 86.113281 7.871094 83.980469 9.765625 83.980469 12.769531 L 83.980469 22.316406 C 83.980469 22.421875 83.894531 22.507812 83.789062 22.507812 L 81.328125 22.507812 C 81.222656 22.507812 81.136719 22.421875 81.136719 22.316406 L 81.136719 12.703125 C 81.136719 9.664062 79.472656 7.871094 76.605469 7.871094 C 73.953125 7.871094 71.730469 9.695312 71.730469 12.769531 L 71.730469 22.316406 C 71.730469 22.421875 71.644531 22.507812 71.539062 22.507812 L 69.097656 22.507812 C 68.992188 22.507812 68.90625 22.421875 68.90625 22.316406 L 68.90625 5.71875 C 68.90625 5.613281 68.992188 5.527344 69.097656 5.527344 L 71.519531 5.527344 C 71.625 5.527344 71.710938 5.613281 71.710938 5.71875 L 71.710938 7.132812 C 71.710938 7.3125 71.933594 7.394531 72.046875 7.261719 C 73.402344 5.722656 75.351562 5.175781 77.109375 5.175781 C 79.769531 5.175781 81.898438 6.308594 83.039062 8.203125 C 83.113281 8.332031 83.292969 8.332031 83.371094 8.203125 C 84.757812 5.929688 87.195312 5.175781 89.347656 5.175781 C 93.417969 5.179688 96.210938 7.816406 96.210938 11.78125 Z M 96.210938 11.78125 " fill-opacity="1" fill-rule="nonzero"/><path fill="#000000" d="M 116.148438 13.78125 C 116.148438 18.765625 112.523438 22.378906 107.902344 22.378906 C 105.511719 22.378906 103.695312 21.53125 102.421875 20.195312 C 102.300781 20.070312 102.09375 20.160156 102.09375 20.332031 L 102.09375 28.789062 C 102.09375 28.894531 102.007812 28.980469 101.898438 28.980469 L 99.457031 28.980469 C 99.351562 28.980469 99.265625 28.894531 99.265625 28.789062 L 99.265625 5.722656 C 99.265625 5.613281 99.351562 5.527344 99.457031 5.527344 L 101.898438 5.527344 C 102.007812 5.527344 102.09375 5.613281 102.09375 5.722656 L 102.09375 7.226562 C 102.09375 7.398438 102.300781 7.488281 102.421875 7.363281 C 103.699219 6.03125 105.515625 5.179688 107.902344 5.179688 C 112.519531 5.179688 116.148438 8.792969 116.148438 13.78125 Z M 101.917969 13.78125 C 101.917969 17.167969 104.242188 19.722656 107.574219 19.722656 C 110.992188 19.722656 113.234375 17.066406 113.234375 13.78125 C 113.234375 10.496094 110.941406 7.855469 107.574219 7.855469 C 104.242188 7.855469 101.917969 10.40625 101.917969 13.78125 Z M 101.917969 13.78125 " fill-opacity="1" fill-rule="nonzero"/><path fill="#000000" d="M 148.210938 9.011719 C 148.15625 9.109375 148.035156 9.140625 147.941406 9.082031 C 146.851562 8.398438 144.855469 7.664062 142.800781 7.664062 C 140.542969 7.664062 139.085938 8.617188 139.085938 10.113281 C 139.085938 11.433594 140.28125 12.042969 142.28125 12.285156 L 144.191406 12.527344 C 147.695312 12.996094 149.761719 14.472656 149.761719 17.203125 C 149.761719 20.34375 146.953125 22.378906 142.457031 22.378906 C 140.472656 22.378906 137.808594 21.914062 135.660156 20.371094 C 135.578125 20.308594 135.558594 20.191406 135.609375 20.105469 L 136.722656 18.320312 C 136.78125 18.226562 136.910156 18.203125 137 18.265625 C 138.214844 19.164062 139.839844 19.894531 142.476562 19.894531 C 145.183594 19.894531 146.847656 19.007812 146.847656 17.375 C 146.847656 16.160156 145.773438 15.394531 143.53125 15.117188 L 141.625 14.890625 C 137.925781 14.441406 136.140625 12.769531 136.140625 10.269531 C 136.140625 7.109375 138.761719 5.195312 142.769531 5.195312 C 145.296875 5.195312 147.605469 5.847656 149.199219 6.886719 C 149.285156 6.941406 149.3125 7.054688 149.261719 7.144531 Z M 148.210938 9.011719 " fill-opacity="1" fill-rule="nonzero"/><path fill="#000000" d="M 162.683594 9.011719 C 162.628906 9.109375 162.511719 9.140625 162.414062 9.082031 C 161.328125 8.398438 159.332031 7.664062 157.273438 7.664062 C 155.015625 7.664062 153.558594 8.617188 153.558594 10.113281 C 153.558594 11.433594 154.757812 12.042969 156.753906 12.285156 L 158.664062 12.527344 C 162.167969 12.996094 164.234375 14.472656 164.234375 17.203125 C 164.234375 20.34375 161.425781 22.378906 156.929688 22.378906 C 154.945312 22.378906 152.28125 21.914062 150.136719 20.371094 C 150.054688 20.308594 150.03125 20.191406 150.085938 20.105469 L 151.195312 18.320312 C 151.253906 18.226562 151.382812 18.203125 151.472656 18.265625 C 152.6875 19.164062 154.3125 19.894531 156.949219 19.894531 C 159.65625 19.894531 161.320312 19.007812 161.320312 17.375 C 161.320312 16.160156 160.246094 15.394531 158.007812 15.117188 L 156.097656 14.890625 C 152.402344 14.441406 150.617188 12.769531 150.617188 10.269531 C 150.617188 7.109375 153.238281 5.195312 157.246094 5.195312 C 159.769531 5.195312 162.082031 5.847656 163.671875 6.886719 C 163.757812 6.941406 163.785156 7.054688 163.738281 7.144531 Z M 162.683594 9.011719 " fill-opacity="1" fill-rule="nonzero"/><path fill="#000000" d="M 46.171875 18.03125 C 46.097656 17.957031 45.980469 17.957031 45.90625 18.03125 C 43.46875 20.332031 40.023438 20.269531 37.738281 17.980469 C 35.394531 15.632812 35.382812 12.105469 37.824219 9.660156 C 40.21875 7.261719 43.640625 7.238281 45.984375 9.457031 C 46.0625 9.527344 46.175781 9.527344 46.25 9.457031 L 47.867188 7.835938 C 47.945312 7.757812 47.945312 7.632812 47.867188 7.554688 C 44.335938 4.15625 39.1875 4.191406 35.773438 7.605469 C 32.3125 11.070312 32.324219 16.316406 35.859375 19.855469 C 39.34375 23.34375 44.496094 23.417969 47.957031 20.097656 C 48.039062 20.023438 48.039062 19.894531 47.960938 19.816406 Z M 46.171875 18.03125 " fill-opacity="1" fill-rule="nonzero"/><path fill="#000000" d="M 52.195312 13.773438 C 52.296875 13.773438 52.378906 13.691406 52.382812 13.582031 C 52.476562 10.230469 54.960938 7.839844 58.191406 7.839844 C 61.507812 7.839844 64.007812 10.324219 64.007812 13.78125 C 64.007812 17.175781 61.601562 19.613281 58.382812 19.703125 C 58.277344 19.707031 58.191406 19.792969 58.191406 19.894531 L 58.191406 22.183594 C 58.191406 22.292969 58.285156 22.382812 58.390625 22.378906 C 63.289062 22.28125 66.90625 18.617188 66.90625 13.78125 C 66.90625 8.882812 63.191406 5.179688 58.191406 5.179688 C 53.265625 5.179688 49.570312 8.777344 49.464844 13.570312 C 49.460938 13.679688 49.554688 13.773438 49.660156 13.773438 Z M 52.195312 13.773438 " fill-opacity="1" fill-rule="nonzero"/><path fill="#000000" d="M 133.71875 5.523438 L 131.28125 5.523438 C 131.171875 5.523438 131.085938 5.613281 131.085938 5.71875 L 131.085938 7.191406 C 129.585938 5.84375 127.585938 5.046875 125.328125 5.046875 C 120.433594 5.046875 116.738281 8.765625 116.738281 13.769531 C 116.738281 18.703125 120.328125 22.402344 125.121094 22.507812 C 125.230469 22.511719 125.324219 22.417969 125.324219 22.3125 L 125.324219 19.777344 C 125.324219 19.675781 125.238281 19.59375 125.132812 19.589844 C 121.78125 19.496094 119.394531 17.007812 119.394531 13.769531 C 119.394531 10.453125 121.878906 7.949219 125.332031 7.949219 C 128.277344 7.949219 131.089844 10.007812 131.089844 12.363281 L 131.089844 22.3125 C 131.089844 22.417969 131.175781 22.503906 131.28125 22.503906 L 133.722656 22.503906 C 133.832031 22.503906 133.917969 22.417969 133.917969 22.3125 L 133.917969 5.714844 C 133.917969 5.613281 133.828125 5.523438 133.71875 5.523438 Z M 133.71875 5.523438 " fill-opacity="1" fill-rule="nonzero"/><path fill="#fdcc01" d="M 60.027344 15.554688 L 60.851562 12.46875 C 61.03125 11.808594 60.425781 11.203125 59.765625 11.378906 L 56.683594 12.207031 C 56.023438 12.386719 55.800781 13.210938 56.289062 13.695312 L 58.542969 15.953125 C 59.023438 16.433594 59.851562 16.214844 60.027344 15.554688 Z M 60.027344 15.554688 " fill-opacity="1" fill-rule="nonzero"/><path fill="#000000" d="M 170.503906 20.464844 C 170.503906 20.738281 170.453125 21.003906 170.347656 21.257812 C 170.242188 21.511719 170.089844 21.738281 169.898438 21.933594 C 169.703125 22.125 169.476562 22.277344 169.222656 22.382812 C 168.96875 22.488281 168.707031 22.539062 168.429688 22.539062 C 168.15625 22.539062 167.890625 22.488281 167.636719 22.382812 C 167.382812 22.277344 167.160156 22.125 166.964844 21.933594 C 166.769531 21.738281 166.621094 21.511719 166.515625 21.257812 C 166.410156 21.003906 166.359375 20.738281 166.359375 20.464844 C 166.359375 20.1875 166.410156 19.925781 166.515625 19.671875 C 166.621094 19.414062 166.769531 19.191406 166.964844 18.996094 C 167.160156 18.800781 167.382812 18.652344 167.636719 18.546875 C 167.890625 18.441406 168.15625 18.386719 168.429688 18.386719 C 168.707031 18.386719 168.96875 18.441406 169.222656 18.546875 C 169.476562 18.652344 169.703125 18.800781 169.898438 18.996094 C 170.089844 19.191406 170.242188 19.414062 170.347656 19.671875 C 170.453125 19.925781 170.503906 20.1875 170.503906 20.464844 Z M 170.503906 20.464844 " fill-opacity="1" fill-rule="nonzero"/><path fill="#000000" d="M 214.753906 16.394531 C 212.75 16.394531 211.828125 15.367188 211.828125 13.359375 L 211.828125 1.003906 L 205.683594 1.003906 L 205.683594 10.179688 C 204.289062 7.175781 201.246094 5.09375 197.71875 5.09375 C 194.1875 5.09375 191.148438 7.175781 189.75 10.179688 L 189.75 5.28125 L 183.683594 5.28125 L 183.683594 13.914062 C 183.683594 15.472656 182.867188 16.527344 181.496094 16.527344 C 180.125 16.527344 179.304688 15.472656 179.304688 13.914062 L 179.304688 5.28125 L 173.160156 5.28125 L 173.160156 13.996094 C 173.160156 19.328125 176.433594 22.683594 181.496094 22.683594 C 185.558594 22.683594 188.460938 20.421875 189.414062 16.765625 C 190.601562 20.210938 193.871094 22.683594 197.714844 22.683594 C 201.507812 22.683594 204.742188 20.273438 205.96875 16.902344 C 206.875 20.816406 209.832031 22.550781 213.800781 22.550781 L 215.355469 22.550781 L 215.355469 16.398438 L 214.753906 16.398438 Z M 197.71875 16.527344 C 196.265625 16.527344 195.082031 15.339844 195.082031 13.890625 C 195.082031 12.4375 196.269531 11.25 197.71875 11.25 C 199.167969 11.25 200.351562 12.4375 200.351562 13.890625 C 200.351562 15.339844 199.164062 16.527344 197.71875 16.527344 Z M 197.71875 16.527344 " fill-opacity="1" fill-rule="nonzero"/></svg>