<svg xmlns="http://www.w3.org/2000/svg" xmlns:xlink="http://www.w3.org/1999/xlink" width="40" zoomAndPan="magnify" viewBox="0 0 30 30.000001" height="40" preserveAspectRatio="xMidYMid meet" version="1.0"><defs><clipPath id="f63ece5a73"><path d="M 1.335938 2.488281 L 28.664062 2.488281 L 28.664062 26.699219 L 1.335938 26.699219 Z M 1.335938 2.488281 " clip-rule="nonzero"/></clipPath><clipPath id="8a8a83d3bf"><path d="M 16.035156 3.109375 L 28.480469 24.882812 C 28.695312 25.261719 28.691406 25.722656 28.476562 26.09375 C 28.257812 26.46875 27.859375 26.699219 27.425781 26.699219 L 2.574219 26.699219 C 2.140625 26.699219 1.742188 26.46875 1.523438 26.09375 C 1.308594 25.722656 1.304688 25.261719 1.519531 24.882812 L 13.964844 3.109375 C 14.175781 2.738281 14.570312 2.507812 15 2.507812 C 15.429688 2.507812 15.824219 2.738281 16.035156 3.109375 " clip-rule="nonzero"/></clipPath></defs><g clip-path="url(#f63ece5a73)"><g clip-path="url(#8a8a83d3bf)"><path fill="#fdcc01" d="M 0.484375 1.296875 L 29.515625 1.296875 L 29.515625 26.699219 L 0.484375 26.699219 Z M 0.484375 1.296875 " fill-opacity="1" fill-rule="nonzero"/></g></g><path fill="#000000" d="M 16.726562 7.671875 C 16.703125 7.632812 16.679688 7.59375 16.65625 7.558594 C 16.632812 7.519531 16.605469 7.484375 16.578125 7.449219 C 16.554688 7.414062 16.523438 7.378906 16.496094 7.347656 C 16.464844 7.3125 16.4375 7.28125 16.40625 7.25 C 16.375 7.21875 16.34375 7.1875 16.308594 7.160156 C 16.273438 7.132812 16.242188 7.101562 16.207031 7.074219 C 16.171875 7.050781 16.136719 7.023438 16.097656 7 C 16.0625 6.972656 16.023438 6.949219 15.984375 6.929688 C 15.949219 6.90625 15.910156 6.886719 15.871094 6.867188 C 15.828125 6.847656 15.789062 6.828125 15.75 6.8125 C 15.707031 6.792969 15.667969 6.78125 15.625 6.765625 C 15.582031 6.75 15.539062 6.738281 15.5 6.726562 C 15.457031 6.714844 15.414062 6.707031 15.371094 6.695312 C 15.324219 6.6875 15.28125 6.679688 15.238281 6.675781 C 15.195312 6.667969 15.152344 6.664062 15.105469 6.660156 C 15.0625 6.660156 15.019531 6.65625 14.972656 6.65625 C 14.929688 6.65625 14.886719 6.660156 14.84375 6.660156 C 14.796875 6.664062 14.753906 6.667969 14.710938 6.675781 C 14.667969 6.679688 14.621094 6.6875 14.578125 6.695312 C 14.535156 6.707031 14.492188 6.714844 14.449219 6.726562 C 14.40625 6.738281 14.367188 6.75 14.324219 6.765625 C 14.28125 6.78125 14.242188 6.792969 14.199219 6.8125 C 14.160156 6.828125 14.117188 6.847656 14.078125 6.867188 C 14.039062 6.886719 14 6.90625 13.960938 6.929688 C 13.925781 6.949219 13.886719 6.972656 13.851562 7 C 13.8125 7.023438 13.777344 7.050781 13.742188 7.074219 C 13.707031 7.101562 13.671875 7.132812 13.640625 7.160156 C 13.605469 7.1875 13.574219 7.21875 13.542969 7.25 C 13.511719 7.28125 13.480469 7.3125 13.453125 7.347656 C 13.425781 7.378906 13.394531 7.414062 13.367188 7.449219 C 13.34375 7.484375 13.316406 7.519531 13.292969 7.558594 C 13.265625 7.59375 13.246094 7.632812 13.222656 7.671875 L 5.128906 21.695312 C 5.109375 21.730469 5.085938 21.769531 5.066406 21.8125 C 5.046875 21.851562 5.03125 21.890625 5.011719 21.929688 C 4.996094 21.972656 4.980469 22.015625 4.964844 22.054688 C 4.953125 22.097656 4.9375 22.140625 4.929688 22.183594 C 4.917969 22.226562 4.90625 22.269531 4.898438 22.3125 C 4.890625 22.355469 4.882812 22.398438 4.875 22.441406 C 4.871094 22.484375 4.867188 22.53125 4.863281 22.574219 C 4.859375 22.617188 4.859375 22.660156 4.859375 22.707031 C 4.859375 22.75 4.859375 22.792969 4.863281 22.839844 C 4.867188 22.882812 4.871094 22.925781 4.875 22.96875 C 4.882812 23.015625 4.890625 23.058594 4.898438 23.101562 C 4.90625 23.144531 4.917969 23.1875 4.929688 23.230469 C 4.941406 23.273438 4.953125 23.316406 4.964844 23.355469 C 4.980469 23.398438 4.996094 23.441406 5.011719 23.480469 C 5.03125 23.523438 5.046875 23.5625 5.066406 23.601562 C 5.085938 23.640625 5.109375 23.679688 5.128906 23.71875 C 5.152344 23.757812 5.175781 23.792969 5.199219 23.832031 C 5.222656 23.867188 5.25 23.902344 5.277344 23.9375 C 5.304688 23.972656 5.332031 24.007812 5.359375 24.039062 C 5.390625 24.074219 5.421875 24.105469 5.453125 24.136719 C 5.484375 24.167969 5.515625 24.199219 5.546875 24.226562 C 5.582031 24.257812 5.617188 24.285156 5.652344 24.3125 C 5.6875 24.339844 5.722656 24.363281 5.757812 24.390625 C 5.796875 24.414062 5.832031 24.4375 5.871094 24.460938 C 5.910156 24.480469 5.949219 24.503906 5.988281 24.523438 C 6.027344 24.542969 6.066406 24.558594 6.109375 24.578125 C 6.148438 24.59375 6.191406 24.609375 6.230469 24.625 C 6.273438 24.636719 6.316406 24.648438 6.359375 24.660156 C 6.402344 24.671875 6.445312 24.683594 6.488281 24.691406 C 6.53125 24.699219 6.574219 24.707031 6.617188 24.714844 C 6.660156 24.71875 6.707031 24.722656 6.75 24.726562 C 6.792969 24.730469 6.839844 24.730469 6.882812 24.730469 L 23.066406 24.730469 C 23.109375 24.730469 23.15625 24.730469 23.199219 24.726562 C 23.242188 24.722656 23.285156 24.71875 23.332031 24.714844 C 23.375 24.707031 23.417969 24.699219 23.460938 24.691406 C 23.503906 24.683594 23.546875 24.671875 23.589844 24.660156 C 23.632812 24.648438 23.675781 24.636719 23.714844 24.621094 C 23.757812 24.609375 23.800781 24.59375 23.839844 24.578125 C 23.882812 24.558594 23.921875 24.542969 23.960938 24.523438 C 24 24.503906 24.039062 24.480469 24.078125 24.460938 C 24.117188 24.4375 24.152344 24.414062 24.191406 24.390625 C 24.226562 24.363281 24.261719 24.339844 24.296875 24.3125 C 24.332031 24.285156 24.367188 24.257812 24.398438 24.226562 C 24.433594 24.199219 24.464844 24.167969 24.496094 24.136719 C 24.527344 24.105469 24.558594 24.074219 24.585938 24.039062 C 24.617188 24.007812 24.644531 23.972656 24.671875 23.9375 C 24.699219 23.902344 24.722656 23.867188 24.75 23.832031 C 24.773438 23.792969 24.796875 23.757812 24.816406 23.71875 C 24.839844 23.679688 24.859375 23.640625 24.878906 23.601562 C 24.898438 23.5625 24.917969 23.523438 24.933594 23.480469 C 24.953125 23.441406 24.96875 23.398438 24.980469 23.355469 C 24.996094 23.316406 25.007812 23.273438 25.019531 23.230469 C 25.03125 23.1875 25.042969 23.144531 25.050781 23.101562 C 25.058594 23.058594 25.066406 23.015625 25.070312 22.96875 C 25.078125 22.925781 25.082031 22.882812 25.085938 22.839844 C 25.085938 22.792969 25.089844 22.75 25.089844 22.707031 C 25.089844 22.660156 25.085938 22.617188 25.085938 22.574219 C 25.082031 22.53125 25.078125 22.484375 25.070312 22.441406 C 25.066406 22.398438 25.058594 22.355469 25.050781 22.3125 C 25.042969 22.269531 25.03125 22.226562 25.019531 22.183594 C 25.007812 22.140625 24.996094 22.097656 24.980469 22.054688 C 24.96875 22.015625 24.953125 21.972656 24.933594 21.929688 C 24.917969 21.890625 24.898438 21.851562 24.878906 21.8125 C 24.859375 21.769531 24.839844 21.730469 24.816406 21.695312 Z M 23.652344 23.042969 C 23.621094 23.09375 23.585938 23.140625 23.542969 23.183594 C 23.503906 23.226562 23.457031 23.261719 23.40625 23.292969 C 23.351562 23.320312 23.296875 23.34375 23.242188 23.359375 C 23.183594 23.375 23.125 23.382812 23.066406 23.382812 L 6.882812 23.382812 C 6.824219 23.382812 6.765625 23.375 6.707031 23.359375 C 6.652344 23.34375 6.597656 23.320312 6.546875 23.289062 C 6.492188 23.261719 6.449219 23.226562 6.40625 23.183594 C 6.363281 23.140625 6.328125 23.09375 6.296875 23.042969 C 6.269531 22.992188 6.246094 22.9375 6.230469 22.878906 C 6.214844 22.824219 6.207031 22.765625 6.207031 22.707031 C 6.207031 22.648438 6.214844 22.589844 6.230469 22.53125 C 6.246094 22.472656 6.269531 22.421875 6.296875 22.367188 L 14.390625 8.34375 C 14.421875 8.292969 14.457031 8.246094 14.496094 8.203125 C 14.539062 8.164062 14.585938 8.128906 14.636719 8.097656 C 14.6875 8.066406 14.742188 8.046875 14.800781 8.03125 C 14.855469 8.015625 14.914062 8.007812 14.972656 8.007812 C 15.035156 8.007812 15.09375 8.015625 15.148438 8.03125 C 15.207031 8.046875 15.261719 8.066406 15.3125 8.097656 C 15.363281 8.128906 15.410156 8.164062 15.453125 8.203125 C 15.492188 8.246094 15.527344 8.292969 15.558594 8.34375 L 23.648438 22.367188 C 23.679688 22.421875 23.703125 22.472656 23.71875 22.53125 C 23.734375 22.589844 23.742188 22.648438 23.742188 22.707031 C 23.742188 22.765625 23.734375 22.824219 23.71875 22.882812 C 23.703125 22.9375 23.679688 22.992188 23.652344 23.042969 Z M 23.652344 23.042969 " fill-opacity="1" fill-rule="nonzero"/><path fill="#000000" d="M 14.972656 11.242188 C 14.914062 11.242188 14.851562 11.246094 14.792969 11.25 C 14.734375 11.257812 14.675781 11.265625 14.617188 11.277344 C 14.554688 11.289062 14.5 11.304688 14.441406 11.320312 C 14.382812 11.339844 14.328125 11.359375 14.269531 11.382812 C 14.214844 11.40625 14.160156 11.429688 14.109375 11.460938 C 14.054688 11.488281 14.003906 11.519531 13.953125 11.550781 C 13.90625 11.585938 13.855469 11.621094 13.808594 11.660156 C 13.761719 11.699219 13.71875 11.738281 13.675781 11.78125 C 13.632812 11.824219 13.59375 11.867188 13.554688 11.914062 C 13.515625 11.960938 13.480469 12.007812 13.449219 12.058594 C 13.414062 12.109375 13.382812 12.160156 13.355469 12.210938 C 13.328125 12.265625 13.300781 12.320312 13.277344 12.375 C 13.253906 12.429688 13.234375 12.488281 13.21875 12.546875 C 13.199219 12.601562 13.1875 12.660156 13.175781 12.71875 C 13.164062 12.777344 13.152344 12.839844 13.148438 12.898438 C 13.140625 12.957031 13.136719 13.019531 13.136719 13.078125 L 13.136719 16.765625 C 13.136719 16.824219 13.140625 16.882812 13.148438 16.945312 C 13.152344 17.003906 13.164062 17.0625 13.175781 17.121094 C 13.1875 17.179688 13.199219 17.238281 13.21875 17.296875 C 13.234375 17.355469 13.253906 17.410156 13.277344 17.464844 C 13.300781 17.519531 13.328125 17.574219 13.355469 17.628906 C 13.382812 17.679688 13.414062 17.734375 13.449219 17.78125 C 13.480469 17.832031 13.515625 17.882812 13.554688 17.925781 C 13.59375 17.972656 13.632812 18.019531 13.675781 18.0625 C 13.71875 18.105469 13.761719 18.144531 13.808594 18.183594 C 13.855469 18.21875 13.90625 18.253906 13.953125 18.289062 C 14.003906 18.324219 14.054688 18.355469 14.109375 18.382812 C 14.160156 18.410156 14.214844 18.4375 14.269531 18.460938 C 14.328125 18.480469 14.382812 18.503906 14.441406 18.519531 C 14.5 18.539062 14.554688 18.550781 14.617188 18.5625 C 14.675781 18.574219 14.734375 18.585938 14.792969 18.589844 C 14.851562 18.597656 14.914062 18.597656 14.972656 18.597656 L 14.976562 18.597656 C 15.035156 18.597656 15.09375 18.597656 15.15625 18.589844 C 15.214844 18.585938 15.273438 18.574219 15.332031 18.5625 C 15.390625 18.550781 15.449219 18.539062 15.507812 18.519531 C 15.566406 18.503906 15.621094 18.480469 15.675781 18.460938 C 15.734375 18.4375 15.789062 18.410156 15.839844 18.382812 C 15.894531 18.355469 15.945312 18.324219 15.996094 18.289062 C 16.042969 18.253906 16.09375 18.21875 16.140625 18.183594 C 16.183594 18.144531 16.230469 18.105469 16.273438 18.0625 C 16.316406 18.019531 16.355469 17.972656 16.394531 17.925781 C 16.429688 17.882812 16.46875 17.832031 16.5 17.78125 C 16.535156 17.734375 16.566406 17.679688 16.59375 17.628906 C 16.621094 17.574219 16.648438 17.519531 16.671875 17.464844 C 16.691406 17.410156 16.714844 17.355469 16.730469 17.296875 C 16.75 17.238281 16.761719 17.179688 16.773438 17.121094 C 16.785156 17.0625 16.796875 17.003906 16.800781 16.945312 C 16.808594 16.882812 16.808594 16.824219 16.808594 16.765625 L 16.808594 13.078125 C 16.808594 13.015625 16.808594 12.957031 16.800781 12.898438 C 16.796875 12.835938 16.785156 12.777344 16.773438 12.71875 C 16.761719 12.660156 16.75 12.601562 16.730469 12.542969 C 16.714844 12.488281 16.691406 12.429688 16.667969 12.375 C 16.648438 12.320312 16.621094 12.265625 16.59375 12.210938 C 16.5625 12.160156 16.535156 12.109375 16.5 12.058594 C 16.464844 12.007812 16.429688 11.960938 16.390625 11.914062 C 16.355469 11.867188 16.3125 11.820312 16.269531 11.78125 C 16.230469 11.738281 16.183594 11.695312 16.136719 11.660156 C 16.089844 11.621094 16.042969 11.585938 15.992188 11.550781 C 15.941406 11.519531 15.890625 11.488281 15.839844 11.457031 C 15.785156 11.429688 15.730469 11.40625 15.675781 11.382812 C 15.621094 11.359375 15.5625 11.339844 15.507812 11.320312 C 15.449219 11.304688 15.390625 11.289062 15.332031 11.277344 C 15.273438 11.265625 15.210938 11.257812 15.152344 11.25 C 15.09375 11.246094 15.03125 11.242188 14.972656 11.242188 Z M 15.460938 16.765625 C 15.460938 16.796875 15.457031 16.828125 15.453125 16.859375 C 15.445312 16.890625 15.4375 16.921875 15.425781 16.949219 C 15.414062 16.980469 15.398438 17.007812 15.378906 17.035156 C 15.363281 17.058594 15.339844 17.085938 15.320312 17.105469 C 15.296875 17.128906 15.273438 17.148438 15.246094 17.167969 C 15.21875 17.183594 15.191406 17.199219 15.160156 17.210938 C 15.132812 17.226562 15.101562 17.234375 15.070312 17.242188 C 15.039062 17.246094 15.007812 17.25 14.976562 17.25 L 14.972656 17.25 C 14.941406 17.25 14.910156 17.246094 14.878906 17.242188 C 14.847656 17.234375 14.816406 17.222656 14.785156 17.210938 C 14.757812 17.199219 14.730469 17.183594 14.703125 17.167969 C 14.675781 17.148438 14.652344 17.128906 14.628906 17.105469 C 14.605469 17.085938 14.585938 17.058594 14.570312 17.035156 C 14.550781 17.007812 14.535156 16.980469 14.523438 16.949219 C 14.511719 16.921875 14.503906 16.890625 14.496094 16.859375 C 14.492188 16.828125 14.488281 16.796875 14.488281 16.765625 L 14.488281 13.078125 C 14.488281 13.046875 14.492188 13.015625 14.496094 12.984375 C 14.503906 12.953125 14.511719 12.921875 14.523438 12.890625 C 14.539062 12.863281 14.550781 12.835938 14.570312 12.808594 C 14.585938 12.78125 14.609375 12.757812 14.628906 12.734375 C 14.652344 12.710938 14.679688 12.691406 14.703125 12.671875 C 14.730469 12.65625 14.757812 12.640625 14.789062 12.628906 C 14.816406 12.617188 14.847656 12.609375 14.878906 12.601562 C 14.910156 12.59375 14.941406 12.59375 14.972656 12.59375 C 15.007812 12.59375 15.039062 12.59375 15.070312 12.601562 C 15.101562 12.609375 15.132812 12.617188 15.160156 12.628906 C 15.191406 12.640625 15.21875 12.65625 15.246094 12.671875 C 15.269531 12.691406 15.296875 12.710938 15.316406 12.734375 C 15.339844 12.757812 15.359375 12.78125 15.378906 12.808594 C 15.398438 12.835938 15.410156 12.863281 15.425781 12.890625 C 15.4375 12.921875 15.445312 12.953125 15.453125 12.984375 C 15.457031 13.015625 15.460938 13.046875 15.460938 13.078125 Z M 15.460938 16.765625 " fill-opacity="1" fill-rule="nonzero"/><path fill="#000000" d="M 14.972656 19.128906 C 14.914062 19.128906 14.855469 19.128906 14.792969 19.136719 C 14.734375 19.140625 14.675781 19.152344 14.617188 19.164062 C 14.558594 19.175781 14.5 19.1875 14.441406 19.207031 C 14.382812 19.222656 14.328125 19.246094 14.273438 19.269531 C 14.214844 19.289062 14.160156 19.316406 14.109375 19.34375 C 14.054688 19.375 14.003906 19.402344 13.953125 19.4375 C 13.90625 19.472656 13.855469 19.507812 13.808594 19.546875 C 13.761719 19.582031 13.71875 19.625 13.675781 19.667969 C 13.632812 19.707031 13.59375 19.753906 13.554688 19.800781 C 13.515625 19.847656 13.480469 19.894531 13.449219 19.945312 C 13.414062 19.996094 13.382812 20.046875 13.355469 20.097656 C 13.328125 20.152344 13.300781 20.207031 13.277344 20.261719 C 13.253906 20.316406 13.234375 20.375 13.21875 20.433594 C 13.199219 20.488281 13.183594 20.546875 13.171875 20.605469 C 13.160156 20.664062 13.152344 20.726562 13.148438 20.785156 C 13.140625 20.84375 13.136719 20.90625 13.136719 20.964844 C 13.136719 21.023438 13.140625 21.085938 13.148438 21.144531 C 13.152344 21.203125 13.160156 21.265625 13.171875 21.324219 C 13.183594 21.382812 13.199219 21.441406 13.21875 21.5 C 13.234375 21.554688 13.253906 21.613281 13.277344 21.667969 C 13.300781 21.722656 13.328125 21.777344 13.355469 21.832031 C 13.382812 21.882812 13.414062 21.9375 13.449219 21.984375 C 13.480469 22.035156 13.515625 22.082031 13.554688 22.128906 C 13.59375 22.175781 13.632812 22.222656 13.675781 22.265625 C 13.71875 22.304688 13.761719 22.347656 13.808594 22.386719 C 13.855469 22.421875 13.90625 22.460938 13.953125 22.492188 C 14.003906 22.527344 14.054688 22.558594 14.109375 22.585938 C 14.160156 22.613281 14.214844 22.640625 14.273438 22.660156 C 14.328125 22.683594 14.382812 22.707031 14.441406 22.722656 C 14.5 22.742188 14.558594 22.753906 14.617188 22.765625 C 14.675781 22.777344 14.734375 22.789062 14.792969 22.792969 C 14.855469 22.800781 14.914062 22.800781 14.972656 22.800781 C 15.035156 22.800781 15.09375 22.800781 15.152344 22.792969 C 15.214844 22.789062 15.273438 22.777344 15.332031 22.765625 C 15.390625 22.753906 15.449219 22.742188 15.507812 22.722656 C 15.566406 22.707031 15.621094 22.683594 15.675781 22.664062 C 15.734375 22.640625 15.785156 22.613281 15.839844 22.585938 C 15.894531 22.558594 15.945312 22.527344 15.996094 22.492188 C 16.042969 22.460938 16.09375 22.421875 16.140625 22.386719 C 16.183594 22.347656 16.230469 22.308594 16.273438 22.265625 C 16.316406 22.222656 16.355469 22.175781 16.394531 22.128906 C 16.433594 22.082031 16.46875 22.035156 16.5 21.984375 C 16.535156 21.9375 16.566406 21.882812 16.59375 21.832031 C 16.621094 21.777344 16.648438 21.722656 16.671875 21.667969 C 16.695312 21.613281 16.714844 21.554688 16.730469 21.5 C 16.75 21.441406 16.761719 21.382812 16.773438 21.324219 C 16.785156 21.265625 16.796875 21.203125 16.800781 21.144531 C 16.808594 21.085938 16.808594 21.027344 16.808594 20.964844 C 16.808594 20.90625 16.808594 20.84375 16.800781 20.785156 C 16.796875 20.726562 16.785156 20.664062 16.773438 20.605469 C 16.761719 20.546875 16.75 20.488281 16.730469 20.433594 C 16.714844 20.375 16.691406 20.316406 16.671875 20.261719 C 16.648438 20.207031 16.621094 20.152344 16.59375 20.097656 C 16.566406 20.046875 16.535156 19.996094 16.5 19.945312 C 16.46875 19.894531 16.429688 19.847656 16.394531 19.800781 C 16.355469 19.753906 16.316406 19.707031 16.273438 19.667969 C 16.230469 19.625 16.183594 19.582031 16.136719 19.546875 C 16.09375 19.507812 16.042969 19.472656 15.992188 19.4375 C 15.945312 19.40625 15.890625 19.375 15.839844 19.34375 C 15.785156 19.316406 15.730469 19.292969 15.675781 19.269531 C 15.621094 19.246094 15.566406 19.226562 15.507812 19.207031 C 15.449219 19.191406 15.390625 19.175781 15.332031 19.164062 C 15.273438 19.152344 15.214844 19.144531 15.152344 19.136719 C 15.09375 19.132812 15.035156 19.128906 14.972656 19.128906 Z M 14.972656 21.453125 C 14.941406 21.453125 14.910156 21.449219 14.878906 21.441406 C 14.847656 21.4375 14.816406 21.425781 14.789062 21.414062 C 14.757812 21.402344 14.730469 21.386719 14.703125 21.371094 C 14.675781 21.351562 14.652344 21.332031 14.628906 21.308594 C 14.605469 21.285156 14.585938 21.261719 14.570312 21.234375 C 14.550781 21.207031 14.535156 21.179688 14.523438 21.152344 C 14.511719 21.121094 14.503906 21.089844 14.496094 21.058594 C 14.492188 21.027344 14.488281 20.996094 14.488281 20.964844 C 14.488281 20.933594 14.492188 20.902344 14.496094 20.871094 C 14.503906 20.839844 14.511719 20.808594 14.523438 20.777344 C 14.535156 20.75 14.550781 20.71875 14.570312 20.695312 C 14.585938 20.667969 14.609375 20.644531 14.628906 20.621094 C 14.652344 20.597656 14.675781 20.578125 14.703125 20.558594 C 14.730469 20.542969 14.757812 20.527344 14.789062 20.515625 C 14.816406 20.503906 14.847656 20.492188 14.878906 20.488281 C 14.910156 20.480469 14.941406 20.476562 14.972656 20.476562 C 15.007812 20.476562 15.039062 20.480469 15.070312 20.488281 C 15.101562 20.492188 15.132812 20.503906 15.160156 20.515625 C 15.191406 20.527344 15.21875 20.542969 15.246094 20.558594 C 15.273438 20.578125 15.296875 20.597656 15.320312 20.621094 C 15.339844 20.644531 15.363281 20.667969 15.378906 20.695312 C 15.398438 20.722656 15.414062 20.75 15.425781 20.777344 C 15.4375 20.808594 15.445312 20.839844 15.453125 20.871094 C 15.457031 20.902344 15.460938 20.933594 15.460938 20.964844 C 15.460938 20.996094 15.457031 21.027344 15.453125 21.058594 C 15.445312 21.089844 15.4375 21.121094 15.425781 21.152344 C 15.414062 21.179688 15.398438 21.210938 15.378906 21.234375 C 15.363281 21.261719 15.339844 21.285156 15.320312 21.308594 C 15.296875 21.332031 15.273438 21.351562 15.246094 21.371094 C 15.21875 21.386719 15.191406 21.402344 15.160156 21.414062 C 15.132812 21.425781 15.101562 21.4375 15.070312 21.441406 C 15.039062 21.449219 15.007812 21.453125 14.972656 21.453125 Z M 14.972656 21.453125 " fill-opacity="1" fill-rule="nonzero"/></svg>