<svg xmlns="http://www.w3.org/2000/svg" xmlns:xlink="http://www.w3.org/1999/xlink" width="40" zoomAndPan="magnify" viewBox="0 0 30 30.000001" height="40" preserveAspectRatio="xMidYMid meet" version="1.0"><defs><clipPath id="379f83a2b1"><path d="M 5 4 L 29.515625 4 L 29.515625 29.03125 L 5 29.03125 Z M 5 4 " clip-rule="nonzero"/></clipPath><clipPath id="393abbe8a3"><path d="M 0.484375 0 L 22 0 L 22 22 L 0.484375 22 Z M 0.484375 0 " clip-rule="nonzero"/></clipPath></defs><g clip-path="url(#379f83a2b1)"><path fill="#fece00" d="M 29.109375 14.003906 L 26.4375 13.738281 C 26.300781 13.328125 26.136719 12.9375 25.945312 12.546875 L 27.648438 10.453125 C 27.792969 10.277344 27.773438 10.023438 27.617188 9.867188 L 24.296875 6.511719 C 24.277344 6.492188 24.257812 6.472656 24.230469 6.453125 C 24.222656 6.441406 24.210938 6.441406 24.203125 6.441406 C 24.183594 6.433594 24.171875 6.421875 24.152344 6.414062 C 24.144531 6.414062 24.132812 6.402344 24.125 6.402344 C 24.105469 6.394531 24.09375 6.394531 24.074219 6.394531 C 24.066406 6.394531 24.054688 6.394531 24.035156 6.394531 C 24.015625 6.394531 24.007812 6.394531 23.988281 6.394531 C 23.980469 6.394531 23.960938 6.394531 23.949219 6.394531 C 23.941406 6.394531 23.929688 6.394531 23.921875 6.394531 C 23.902344 6.394531 23.890625 6.402344 23.871094 6.402344 C 23.863281 6.402344 23.851562 6.402344 23.84375 6.414062 C 23.824219 6.421875 23.8125 6.421875 23.792969 6.433594 C 23.785156 6.433594 23.777344 6.441406 23.777344 6.441406 C 23.757812 6.453125 23.726562 6.472656 23.707031 6.492188 L 21.644531 8.195312 C 21.269531 7.996094 20.871094 7.839844 20.464844 7.695312 L 20.203125 4.996094 C 20.183594 4.769531 19.992188 4.59375 19.769531 4.59375 L 15.074219 4.59375 C 14.851562 4.59375 14.65625 4.769531 14.636719 4.996094 L 14.375 7.695312 C 14.191406 7.753906 14.007812 7.832031 13.824219 7.898438 C 13.792969 8.027344 13.757812 8.152344 13.71875 8.292969 L 16.835938 11.441406 C 16.96875 11.429688 17.097656 11.421875 17.230469 11.410156 C 17.300781 11.410156 17.355469 11.410156 17.425781 11.410156 C 20.378906 11.410156 22.777344 13.835938 22.777344 16.820312 C 22.777344 16.90625 22.777344 16.996094 22.769531 17.074219 C 22.769531 17.101562 22.769531 17.132812 22.769531 17.160156 C 22.769531 17.21875 22.757812 17.277344 22.757812 17.335938 C 22.757812 17.367188 22.75 17.394531 22.75 17.433594 C 22.738281 17.515625 22.730469 17.582031 22.71875 17.660156 C 22.710938 17.710938 22.699219 17.75 22.699219 17.796875 C 22.691406 17.828125 22.691406 17.855469 22.679688 17.894531 C 22.671875 17.945312 22.664062 18.003906 22.652344 18.050781 C 22.652344 18.070312 22.644531 18.082031 22.644531 18.101562 C 22.566406 18.433594 22.457031 18.753906 22.3125 19.070312 C 21.78125 20.261719 20.832031 21.21875 19.652344 21.769531 C 19.339844 21.914062 19.023438 22.023438 18.691406 22.101562 C 18.671875 22.101562 18.664062 22.109375 18.644531 22.109375 C 18.597656 22.121094 18.539062 22.128906 18.488281 22.140625 C 18.460938 22.148438 18.433594 22.148438 18.394531 22.160156 C 18.34375 22.167969 18.304688 22.179688 18.257812 22.179688 C 18.191406 22.1875 18.113281 22.199219 18.035156 22.207031 C 18.003906 22.207031 17.976562 22.21875 17.9375 22.21875 C 17.878906 22.226562 17.820312 22.226562 17.765625 22.226562 C 17.734375 22.226562 17.707031 22.226562 17.675781 22.226562 C 17.589844 22.226562 17.511719 22.238281 17.425781 22.238281 C 14.472656 22.238281 12.070312 19.8125 12.070312 16.828125 C 12.070312 16.730469 12.070312 16.625 12.082031 16.527344 C 12.082031 16.507812 12.082031 16.488281 12.082031 16.46875 C 12.089844 16.390625 12.089844 16.3125 12.101562 16.234375 L 8.984375 13.082031 C 8.859375 13.121094 8.730469 13.152344 8.597656 13.191406 C 8.597656 13.191406 8.597656 13.199219 8.585938 13.199219 C 8.558594 13.289062 8.519531 13.367188 8.488281 13.453125 C 8.449219 13.554688 8.421875 13.652344 8.382812 13.75 L 5.710938 14.011719 C 5.488281 14.03125 5.316406 14.226562 5.316406 14.453125 L 5.316406 19.195312 C 5.316406 19.421875 5.488281 19.617188 5.710938 19.636719 L 8.382812 19.898438 C 8.519531 20.3125 8.683594 20.703125 8.878906 21.09375 L 7.171875 23.1875 C 7.027344 23.363281 7.046875 23.617188 7.203125 23.773438 L 10.523438 27.128906 C 10.542969 27.148438 10.5625 27.167969 10.589844 27.1875 C 10.601562 27.195312 10.609375 27.195312 10.621094 27.195312 C 10.640625 27.207031 10.648438 27.214844 10.667969 27.226562 C 10.675781 27.226562 10.6875 27.234375 10.695312 27.234375 C 10.714844 27.246094 10.726562 27.246094 10.746094 27.246094 C 10.753906 27.246094 10.765625 27.246094 10.785156 27.246094 C 10.804688 27.246094 10.8125 27.246094 10.832031 27.246094 C 10.84375 27.246094 10.863281 27.246094 10.871094 27.246094 C 10.882812 27.246094 10.890625 27.246094 10.898438 27.246094 C 10.917969 27.246094 10.929688 27.234375 10.949219 27.234375 C 10.957031 27.234375 10.96875 27.234375 10.976562 27.226562 C 10.996094 27.214844 11.007812 27.214844 11.027344 27.207031 C 11.035156 27.207031 11.046875 27.195312 11.046875 27.195312 C 11.066406 27.1875 11.09375 27.167969 11.113281 27.148438 L 13.183594 25.425781 C 13.570312 25.621094 13.960938 25.789062 14.367188 25.925781 L 14.628906 28.625 C 14.648438 28.847656 14.839844 29.023438 15.0625 29.023438 L 19.757812 29.023438 C 19.980469 29.023438 20.175781 28.847656 20.195312 28.625 L 20.453125 25.925781 C 20.863281 25.789062 21.257812 25.621094 21.636719 25.425781 L 23.707031 27.148438 C 23.726562 27.167969 23.746094 27.175781 23.777344 27.195312 C 23.785156 27.195312 23.792969 27.207031 23.792969 27.207031 C 23.8125 27.214844 23.824219 27.226562 23.84375 27.226562 C 23.851562 27.226562 23.863281 27.234375 23.871094 27.234375 C 23.890625 27.234375 23.902344 27.246094 23.921875 27.246094 C 23.929688 27.246094 23.941406 27.246094 23.949219 27.246094 C 23.960938 27.246094 23.980469 27.246094 23.988281 27.246094 C 24.007812 27.246094 24.015625 27.246094 24.035156 27.246094 C 24.046875 27.246094 24.054688 27.246094 24.074219 27.246094 C 24.09375 27.246094 24.105469 27.234375 24.125 27.234375 C 24.132812 27.234375 24.144531 27.226562 24.152344 27.226562 C 24.171875 27.214844 24.183594 27.207031 24.203125 27.195312 C 24.210938 27.195312 24.222656 27.1875 24.230469 27.1875 C 24.25 27.167969 24.277344 27.15625 24.296875 27.128906 L 27.617188 23.773438 C 27.773438 23.617188 27.792969 23.363281 27.648438 23.1875 L 25.953125 21.082031 C 26.148438 20.691406 26.3125 20.300781 26.449219 19.890625 L 29.121094 19.625 C 29.34375 19.605469 29.515625 19.410156 29.515625 19.1875 L 29.515625 14.441406 C 29.507812 14.21875 29.332031 14.023438 29.109375 14.003906 Z M 29.109375 14.003906 " fill-opacity="1" fill-rule="nonzero"/></g><g clip-path="url(#393abbe8a3)"><path fill="#fece00" d="M 2.816406 10.863281 C 2.835938 10.882812 2.855469 10.894531 2.867188 10.914062 C 2.933594 10.972656 2.992188 11.03125 3.058594 11.078125 C 3.070312 11.078125 3.070312 11.089844 3.078125 11.089844 C 3.144531 11.148438 3.222656 11.207031 3.292969 11.253906 C 3.3125 11.265625 3.328125 11.285156 3.347656 11.292969 C 3.417969 11.34375 3.476562 11.390625 3.542969 11.429688 C 3.550781 11.441406 3.5625 11.441406 3.570312 11.449219 C 3.648438 11.5 3.71875 11.546875 3.792969 11.597656 C 3.8125 11.605469 3.832031 11.625 3.863281 11.636719 C 3.929688 11.675781 3.988281 11.714844 4.054688 11.742188 C 4.074219 11.753906 4.085938 11.761719 4.105469 11.773438 C 4.183594 11.8125 4.257812 11.851562 4.335938 11.890625 C 4.367188 11.898438 4.386719 11.910156 4.414062 11.929688 C 4.472656 11.957031 4.539062 11.988281 4.597656 12.007812 C 4.617188 12.015625 4.636719 12.027344 4.664062 12.035156 C 4.742188 12.066406 4.820312 12.09375 4.898438 12.125 C 4.925781 12.132812 4.957031 12.144531 4.984375 12.152344 C 5.042969 12.171875 5.101562 12.195312 5.160156 12.214844 C 5.1875 12.222656 5.21875 12.234375 5.238281 12.242188 C 5.316406 12.261719 5.390625 12.292969 5.46875 12.3125 C 5.5 12.320312 5.539062 12.332031 5.566406 12.332031 C 5.625 12.339844 5.671875 12.359375 5.730469 12.371094 C 5.761719 12.378906 5.796875 12.378906 5.828125 12.390625 C 5.90625 12.398438 5.984375 12.417969 6.050781 12.429688 C 6.089844 12.4375 6.128906 12.4375 6.15625 12.449219 C 6.207031 12.457031 6.253906 12.457031 6.300781 12.46875 C 6.339844 12.46875 6.378906 12.476562 6.417969 12.476562 C 6.496094 12.488281 6.5625 12.488281 6.640625 12.496094 C 6.679688 12.496094 6.71875 12.496094 6.765625 12.496094 C 6.816406 12.496094 6.855469 12.496094 6.902344 12.496094 C 6.949219 12.496094 6.988281 12.496094 7.039062 12.496094 C 7.046875 12.496094 7.058594 12.496094 7.066406 12.496094 C 7.25 12.496094 7.445312 12.488281 7.628906 12.457031 C 7.636719 12.457031 7.648438 12.457031 7.65625 12.457031 C 7.714844 12.449219 7.773438 12.449219 7.832031 12.4375 C 7.851562 12.4375 7.859375 12.4375 7.878906 12.429688 C 7.9375 12.417969 7.996094 12.410156 8.054688 12.398438 C 8.0625 12.398438 8.082031 12.398438 8.09375 12.390625 C 8.285156 12.351562 8.480469 12.3125 8.671875 12.253906 C 8.769531 12.222656 8.867188 12.195312 8.964844 12.164062 C 9.050781 12.132812 9.148438 12.09375 9.246094 12.066406 L 12.34375 15.195312 L 16.535156 19.429688 L 18.335938 21.25 C 18.664062 21.179688 18.984375 21.082031 19.292969 20.9375 C 20.28125 20.488281 21.074219 19.683594 21.53125 18.675781 C 21.664062 18.363281 21.773438 18.042969 21.839844 17.710938 L 18.238281 14.070312 L 12.75 8.527344 C 12.789062 8.4375 12.816406 8.339844 12.847656 8.242188 C 12.875 8.144531 12.902344 8.046875 12.933594 7.949219 C 13.195312 7 13.234375 6.03125 13.070312 5.101562 C 13.070312 5.09375 13.070312 5.09375 13.070312 5.082031 C 13.058594 5.023438 13.050781 4.976562 13.03125 4.917969 C 13.03125 4.90625 13.019531 4.898438 13.019531 4.878906 C 13.011719 4.828125 13 4.769531 12.980469 4.722656 C 12.980469 4.703125 12.972656 4.691406 12.972656 4.671875 C 12.960938 4.625 12.941406 4.574219 12.933594 4.527344 C 12.921875 4.507812 12.921875 4.488281 12.914062 4.46875 C 12.902344 4.417969 12.886719 4.378906 12.875 4.332031 C 12.867188 4.3125 12.867188 4.292969 12.855469 4.261719 C 12.847656 4.222656 12.828125 4.171875 12.808594 4.132812 C 12.796875 4.113281 12.789062 4.085938 12.777344 4.066406 C 12.757812 4.027344 12.75 3.988281 12.730469 3.949219 C 12.71875 3.917969 12.710938 3.898438 12.699219 3.871094 C 12.679688 3.832031 12.671875 3.792969 12.652344 3.753906 C 12.644531 3.722656 12.632812 3.703125 12.613281 3.675781 C 12.59375 3.636719 12.585938 3.597656 12.566406 3.566406 C 12.554688 3.539062 12.535156 3.519531 12.527344 3.488281 C 12.507812 3.449219 12.488281 3.421875 12.476562 3.382812 C 12.46875 3.351562 12.449219 3.324219 12.429688 3.304688 C 12.410156 3.273438 12.390625 3.234375 12.371094 3.207031 C 12.351562 3.175781 12.34375 3.148438 12.324219 3.117188 C 12.304688 3.089844 12.285156 3.050781 12.265625 3.019531 C 12.246094 2.992188 12.226562 2.960938 12.207031 2.933594 C 12.1875 2.902344 12.167969 2.875 12.148438 2.84375 C 12.128906 2.8125 12.109375 2.785156 12.089844 2.753906 C 12.070312 2.726562 12.050781 2.695312 12.03125 2.667969 C 12.011719 2.636719 11.996094 2.609375 11.964844 2.578125 C 11.945312 2.550781 11.925781 2.519531 11.90625 2.5 C 11.886719 2.472656 11.859375 2.441406 11.839844 2.414062 C 11.820312 2.382812 11.800781 2.363281 11.78125 2.335938 C 11.753906 2.304688 11.734375 2.265625 11.703125 2.238281 C 11.683594 2.21875 11.664062 2.1875 11.644531 2.167969 C 11.617188 2.128906 11.585938 2.101562 11.550781 2.0625 C 11.53125 2.042969 11.519531 2.023438 11.5 2.003906 C 11.453125 1.953125 11.402344 1.894531 11.355469 1.847656 C 11.289062 1.777344 11.21875 1.71875 11.152344 1.652344 C 11.132812 1.632812 11.121094 1.621094 11.105469 1.601562 C 11.035156 1.542969 10.96875 1.484375 10.898438 1.425781 C 10.890625 1.414062 10.890625 1.414062 10.882812 1.40625 C 10.8125 1.355469 10.746094 1.296875 10.6875 1.25 C 10.667969 1.238281 10.660156 1.21875 10.640625 1.210938 C 10.570312 1.160156 10.492188 1.101562 10.417969 1.054688 C 10.40625 1.042969 10.398438 1.042969 10.386719 1.035156 C 10.320312 0.984375 10.25 0.945312 10.183594 0.90625 C 10.164062 0.898438 10.15625 0.886719 10.136719 0.878906 C 10.058594 0.828125 9.980469 0.789062 9.902344 0.75 C 9.894531 0.742188 9.875 0.730469 9.863281 0.730469 C 9.796875 0.691406 9.730469 0.664062 9.660156 0.625 C 9.640625 0.613281 9.632812 0.605469 9.613281 0.605469 C 9.535156 0.566406 9.457031 0.535156 9.371094 0.496094 C 9.351562 0.488281 9.332031 0.488281 9.324219 0.476562 C 9.253906 0.449219 9.175781 0.417969 9.109375 0.390625 C 9.101562 0.378906 9.082031 0.378906 9.070312 0.371094 C 8.984375 0.339844 8.90625 0.3125 8.820312 0.292969 C 8.800781 0.28125 8.78125 0.28125 8.761719 0.273438 C 8.683594 0.253906 8.605469 0.222656 8.527344 0.203125 C 8.519531 0.203125 8.507812 0.195312 8.5 0.195312 C 8.414062 0.171875 8.324219 0.152344 8.238281 0.132812 C 8.21875 0.132812 8.199219 0.125 8.179688 0.125 C 8.09375 0.105469 8.015625 0.09375 7.929688 0.0742188 C 7.929688 0.0742188 7.917969 0.0742188 7.917969 0.0742188 C 7.832031 0.0664062 7.746094 0.0546875 7.65625 0.046875 C 7.636719 0.046875 7.617188 0.046875 7.597656 0.0351562 C 7.511719 0.0273438 7.425781 0.015625 7.335938 0.015625 C 7.328125 0.015625 7.328125 0.015625 7.320312 0.015625 C 7.230469 0.015625 7.144531 0.0078125 7.066406 0.0078125 C 7.039062 0.0078125 7.019531 0.0078125 6.988281 0.0078125 C 6.960938 0.0078125 6.929688 0.0078125 6.902344 0.0078125 C 6.863281 0.0078125 6.835938 0.0078125 6.796875 0.0078125 C 6.765625 0.0078125 6.738281 0.0078125 6.707031 0.0078125 C 6.667969 0.0078125 6.640625 0.0078125 6.601562 0.015625 C 6.574219 0.015625 6.542969 0.015625 6.515625 0.0273438 C 6.476562 0.0273438 6.445312 0.0351562 6.410156 0.0351562 C 6.378906 0.0351562 6.351562 0.046875 6.320312 0.046875 C 6.28125 0.046875 6.242188 0.0546875 6.214844 0.0546875 C 6.1875 0.0546875 6.15625 0.0664062 6.136719 0.0664062 C 6.097656 0.0742188 6.058594 0.0742188 6.019531 0.0859375 C 5.992188 0.0859375 5.972656 0.09375 5.945312 0.09375 C 5.90625 0.105469 5.855469 0.113281 5.816406 0.125 C 5.796875 0.125 5.777344 0.132812 5.75 0.132812 C 5.683594 0.144531 5.625 0.164062 5.554688 0.171875 C 5.402344 0.214844 5.285156 0.332031 5.238281 0.488281 C 5.199219 0.644531 5.238281 0.800781 5.34375 0.917969 L 8.519531 4.132812 L 7.289062 6.53125 L 4.898438 7.800781 L 1.722656 4.585938 C 1.703125 4.566406 1.683594 4.546875 1.664062 4.535156 C 1.65625 4.535156 1.65625 4.527344 1.644531 4.527344 C 1.625 4.515625 1.605469 4.496094 1.578125 4.488281 C 1.558594 4.476562 1.53125 4.46875 1.511719 4.46875 C 1.5 4.46875 1.5 4.46875 1.492188 4.46875 C 1.472656 4.46875 1.441406 4.457031 1.421875 4.457031 C 1.421875 4.457031 1.421875 4.457031 1.414062 4.457031 C 1.402344 4.457031 1.382812 4.457031 1.375 4.457031 C 1.363281 4.457031 1.363281 4.457031 1.355469 4.457031 C 1.335938 4.457031 1.316406 4.46875 1.296875 4.46875 C 1.140625 4.507812 1.027344 4.632812 0.988281 4.789062 C 0.484375 6.921875 1.09375 9.113281 2.625 10.65625 C 2.679688 10.734375 2.75 10.792969 2.816406 10.863281 Z M 2.816406 10.863281 " fill-opacity="1" fill-rule="nonzero"/></g></svg>