<svg xmlns="http://www.w3.org/2000/svg" xmlns:xlink="http://www.w3.org/1999/xlink" width="293" zoomAndPan="magnify" viewBox="0 0 219.75 30.000001" height="40" preserveAspectRatio="xMidYMid meet" version="1.0"><defs><g/><clipPath id="7d33ae06fd"><path d="M 3.421875 0 L 216.085938 0 L 216.085938 29.03125 L 3.421875 29.03125 Z M 3.421875 0 " clip-rule="nonzero"/></clipPath><clipPath id="dce0d67207"><path d="M 4.875 0 L 214.875 0 C 215.675781 0 216.328125 0.652344 216.328125 1.453125 L 216.328125 27.613281 C 216.328125 28.414062 215.675781 29.066406 214.875 29.066406 L 4.875 29.066406 C 4.074219 29.066406 3.421875 28.414062 3.421875 27.613281 L 3.421875 1.453125 C 3.421875 0.652344 4.074219 0 4.875 0 " clip-rule="nonzero"/></clipPath><clipPath id="4ef5e67494"><path d="M 183 10.046875 L 204.035156 10.046875 L 204.035156 25.472656 L 183 25.472656 Z M 183 10.046875 " clip-rule="nonzero"/></clipPath><clipPath id="80ffb924dc"><path d="M 15.710938 10.046875 L 37 10.046875 L 37 25.472656 L 15.710938 25.472656 Z M 15.710938 10.046875 " clip-rule="nonzero"/></clipPath><clipPath id="ac278beaba"><path d="M 20.691406 16.152344 L 198.703125 16.152344 L 198.703125 19.367188 L 20.691406 19.367188 Z M 20.691406 16.152344 " clip-rule="nonzero"/></clipPath></defs><g clip-path="url(#7d33ae06fd)"><g clip-path="url(#dce0d67207)"><path fill="#ffffff" d="M 3.421875 0 L 216.371094 0 L 216.371094 29.019531 L 3.421875 29.019531 Z M 3.421875 0 " fill-opacity="1" fill-rule="nonzero"/><path stroke-linecap="butt" transform="matrix(0.726632, 0, 0, 0.726632, 3.423384, -0.00000160849)" fill="none" stroke-linejoin="miter" d="M 1.997732 0.00000221363 L 291.002315 0.00000221363 C 292.10436 0.00000221363 293.002123 0.897766 293.002123 1.999811 L 293.002123 38.001739 C 293.002123 39.103784 292.10436 40.001548 291.002315 40.001548 L 1.997732 40.001548 C 0.895687 40.001548 -0.0020764 39.103784 -0.0020764 38.001739 L -0.0020764 1.999811 C -0.0020764 0.897766 0.895687 0.00000221363 1.997732 0.00000221363 " stroke="#000000" stroke-width="4" stroke-opacity="1" stroke-miterlimit="4"/></g></g><g clip-path="url(#4ef5e67494)"><path fill="#fece00" d="M 194.089844 10.65625 C 194.054688 10.496094 194.015625 10.277344 194.015625 10.066406 L 196.261719 10.066406 L 196.261719 10.050781 C 196.261719 10.046875 196.261719 10.046875 196.261719 10.046875 C 196.261719 10.046875 196.261719 10.046875 196.265625 10.050781 C 196.265625 10.066406 196.273438 10.105469 196.289062 10.179688 C 196.3125 10.289062 196.347656 10.433594 196.398438 10.597656 C 196.496094 10.921875 196.621094 11.28125 196.730469 11.554688 C 197.339844 13.066406 198.371094 14.351562 199.691406 15.253906 C 200.933594 16.105469 202.386719 16.582031 203.875 16.628906 L 204.03125 16.628906 L 204.03125 18.886719 C 202.449219 18.886719 201.007812 19.363281 199.691406 20.265625 C 198.371094 21.167969 197.339844 22.453125 196.730469 23.964844 C 196.621094 24.238281 196.496094 24.597656 196.398438 24.921875 C 196.347656 25.085938 196.3125 25.230469 196.289062 25.339844 C 196.273438 25.414062 196.265625 25.453125 196.265625 25.46875 C 196.261719 25.472656 196.261719 25.472656 196.261719 25.472656 C 196.261719 25.472656 196.261719 25.472656 196.261719 25.46875 C 196.261719 25.464844 196.261719 25.460938 196.261719 25.453125 L 194.015625 25.453125 C 194.015625 25.242188 194.054688 25.023438 194.089844 24.863281 C 194.128906 24.679688 194.183594 24.480469 194.242188 24.285156 C 194.355469 23.894531 194.503906 23.464844 194.644531 23.121094 C 195.320312 21.453125 196.402344 19.992188 197.785156 18.878906 L 183.464844 18.878906 L 183.464844 16.628906 L 197.777344 16.628906 C 196.398438 15.519531 195.316406 14.0625 194.644531 12.398438 C 194.503906 12.054688 194.355469 11.625 194.242188 11.234375 C 194.183594 11.039062 194.128906 10.839844 194.089844 10.65625 Z M 194.089844 10.65625 " fill-opacity="1" fill-rule="evenodd"/></g><g clip-path="url(#80ffb924dc)"><path fill="#fece00" d="M 25.65625 24.863281 C 25.691406 25.023438 25.734375 25.242188 25.734375 25.453125 L 23.484375 25.453125 L 23.484375 25.46875 C 23.484375 25.472656 23.484375 25.472656 23.484375 25.472656 C 23.484375 25.472656 23.484375 25.472656 23.484375 25.46875 C 23.480469 25.453125 23.472656 25.414062 23.457031 25.339844 C 23.433594 25.230469 23.398438 25.085938 23.347656 24.921875 C 23.253906 24.597656 23.128906 24.238281 23.015625 23.964844 C 22.40625 22.453125 21.375 21.167969 20.058594 20.265625 C 18.8125 19.414062 17.359375 18.9375 15.871094 18.890625 L 15.714844 18.890625 L 15.714844 16.632812 C 17.296875 16.632812 18.738281 16.15625 20.058594 15.253906 C 21.375 14.351562 22.40625 13.066406 23.015625 11.554688 C 23.128906 11.28125 23.253906 10.921875 23.347656 10.597656 C 23.398438 10.433594 23.433594 10.289062 23.457031 10.179688 C 23.472656 10.105469 23.480469 10.066406 23.484375 10.050781 C 23.484375 10.046875 23.484375 10.046875 23.484375 10.046875 C 23.484375 10.046875 23.484375 10.046875 23.484375 10.050781 C 23.484375 10.054688 23.484375 10.058594 23.484375 10.066406 L 25.734375 10.066406 C 25.734375 10.277344 25.691406 10.496094 25.65625 10.65625 C 25.617188 10.839844 25.5625 11.039062 25.503906 11.234375 C 25.390625 11.625 25.242188 12.054688 25.101562 12.398438 C 24.425781 14.066406 23.34375 15.527344 21.960938 16.640625 L 36.28125 16.640625 L 36.28125 18.890625 L 21.972656 18.890625 C 23.351562 20 24.429688 21.457031 25.101562 23.121094 C 25.242188 23.464844 25.390625 23.894531 25.503906 24.285156 C 25.5625 24.480469 25.617188 24.679688 25.65625 24.863281 Z M 25.65625 24.863281 " fill-opacity="1" fill-rule="evenodd"/></g><g clip-path="url(#ac278beaba)"><path fill="#fdcc01" d="M 20.691406 16.152344 L 198.714844 16.152344 L 198.714844 19.40625 L 20.691406 19.40625 Z M 20.691406 16.152344 " fill-opacity="1" fill-rule="nonzero"/></g><g fill="#000000" fill-opacity="1"><g transform="translate(27.234746, 14.778866)"><g><path d="M 2 0 L -0.15625 0 L 2.5625 -9.5 L 5.109375 -9.5 L 7.828125 0 L 5.671875 0 L 5.140625 -2.109375 L 2.546875 -2.109375 Z M 4.734375 -3.890625 L 3.875 -7.5625 L 3.796875 -7.5625 L 2.953125 -3.890625 Z M 4.734375 -3.890625 "/></g></g></g><g fill="#000000" fill-opacity="1"><g transform="translate(34.974692, 14.778866)"><g><path d="M 3.09375 0 L 1 0 L 1 -10.28125 L 3.09375 -10.28125 Z M 3.09375 0 "/></g></g></g><g fill="#000000" fill-opacity="1"><g transform="translate(39.067546, 14.778866)"><g><path d="M 10.65625 -7.953125 L 9.09375 0 L 6.453125 0 L 5.515625 -5.34375 L 5.4375 -5.34375 L 4.5 0 L 1.859375 0 L 0.265625 -7.953125 L 2.375 -7.953125 L 3.203125 -1.546875 L 3.28125 -1.546875 L 4.21875 -6.859375 L 6.734375 -6.859375 L 7.671875 -1.546875 L 7.765625 -1.546875 L 8.5625 -7.953125 Z M 10.65625 -7.953125 "/></g></g></g><g fill="#000000" fill-opacity="1"><g transform="translate(49.927781, 14.778866)"><g><path d="M 3 0.171875 C 2.332031 0.171875 1.78125 -0.0546875 1.34375 -0.515625 C 0.90625 -0.972656 0.6875 -1.640625 0.6875 -2.515625 C 0.6875 -3.390625 0.992188 -4.023438 1.609375 -4.421875 C 2.234375 -4.816406 3.132812 -5.015625 4.3125 -5.015625 L 5.328125 -5.015625 C 5.328125 -5.617188 5.265625 -6.007812 5.140625 -6.1875 C 5.023438 -6.363281 4.765625 -6.453125 4.359375 -6.453125 C 3.953125 -6.453125 3.5 -6.40625 3 -6.3125 C 2.5 -6.21875 1.941406 -6.082031 1.328125 -5.90625 L 0.890625 -7.421875 C 1.265625 -7.585938 1.796875 -7.742188 2.484375 -7.890625 C 3.171875 -8.046875 3.785156 -8.125 4.328125 -8.125 C 5.429688 -8.125 6.222656 -7.867188 6.703125 -7.359375 C 7.179688 -6.847656 7.421875 -6.109375 7.421875 -5.140625 L 7.421875 0 L 6.09375 0 L 5.828125 -0.875 L 5.75 -0.875 C 5.632812 -0.789062 5.488281 -0.691406 5.3125 -0.578125 C 5.144531 -0.460938 4.816406 -0.304688 4.328125 -0.109375 C 3.835938 0.078125 3.394531 0.171875 3 0.171875 Z M 5.328125 -3.453125 C 5.015625 -3.503906 4.59375 -3.53125 4.0625 -3.53125 C 3.53125 -3.53125 3.191406 -3.460938 3.046875 -3.328125 C 2.898438 -3.191406 2.828125 -2.929688 2.828125 -2.546875 C 2.828125 -2.171875 2.882812 -1.910156 3 -1.765625 C 3.125 -1.617188 3.3125 -1.546875 3.5625 -1.546875 C 4.03125 -1.546875 4.53125 -1.671875 5.0625 -1.921875 L 5.328125 -2.046875 Z M 5.328125 -3.453125 "/></g></g></g><g fill="#000000" fill-opacity="1"><g transform="translate(58.329603, 14.778866)"><g><path d="M 1.578125 2.25 L 2.75 -0.6875 L -0.046875 -7.953125 L 2.265625 -7.953125 L 3.65625 -2.640625 L 3.75 -2.640625 L 5.15625 -7.953125 L 7.3125 -7.953125 L 4.515625 -0.421875 L 3.75 2.25 Z M 1.578125 2.25 "/></g></g></g><g fill="#000000" fill-opacity="1"><g transform="translate(65.623787, 14.778866)"><g><path d="M 3.5 -6.453125 C 3.15625 -6.453125 2.929688 -6.40625 2.828125 -6.3125 C 2.722656 -6.226562 2.671875 -6.097656 2.671875 -5.921875 C 2.671875 -5.753906 2.75 -5.601562 2.90625 -5.46875 C 3.0625 -5.34375 3.210938 -5.25 3.359375 -5.1875 C 3.515625 -5.132812 3.691406 -5.078125 3.890625 -5.015625 C 4.097656 -4.960938 4.398438 -4.875 4.796875 -4.75 C 5.203125 -4.632812 5.519531 -4.515625 5.75 -4.390625 C 6.445312 -4.003906 6.796875 -3.382812 6.796875 -2.53125 C 6.796875 -1.675781 6.535156 -1.007812 6.015625 -0.53125 C 5.492188 -0.0625 4.757812 0.171875 3.8125 0.171875 C 3.3125 0.171875 2.789062 0.109375 2.25 -0.015625 C 1.71875 -0.148438 1.300781 -0.28125 1 -0.40625 L 0.5625 -0.609375 L 1.078125 -2.25 C 2.222656 -1.769531 3.160156 -1.53125 3.890625 -1.53125 C 4.171875 -1.53125 4.378906 -1.578125 4.515625 -1.671875 C 4.648438 -1.773438 4.71875 -1.957031 4.71875 -2.21875 C 4.71875 -2.375 4.691406 -2.488281 4.640625 -2.5625 C 4.585938 -2.632812 4.539062 -2.691406 4.5 -2.734375 C 4.46875 -2.773438 4.414062 -2.816406 4.34375 -2.859375 C 4.269531 -2.898438 4.207031 -2.929688 4.15625 -2.953125 C 4.101562 -2.972656 4.023438 -3 3.921875 -3.03125 C 3.828125 -3.070312 3.753906 -3.101562 3.703125 -3.125 C 3.648438 -3.144531 3.5625 -3.171875 3.4375 -3.203125 C 3.3125 -3.234375 3.164062 -3.273438 3 -3.328125 C 2.84375 -3.378906 2.722656 -3.414062 2.640625 -3.4375 C 2.566406 -3.46875 2.410156 -3.523438 2.171875 -3.609375 C 1.929688 -3.703125 1.765625 -3.78125 1.671875 -3.84375 C 1.578125 -3.914062 1.445312 -4.019531 1.28125 -4.15625 C 1.113281 -4.289062 0.992188 -4.425781 0.921875 -4.5625 C 0.734375 -4.957031 0.640625 -5.351562 0.640625 -5.75 C 0.640625 -6.488281 0.882812 -7.066406 1.375 -7.484375 C 1.875 -7.910156 2.613281 -8.125 3.59375 -8.125 C 4.582031 -8.125 5.535156 -7.96875 6.453125 -7.65625 L 6.15625 -6.046875 C 5.113281 -6.316406 4.226562 -6.453125 3.5 -6.453125 Z M 3.5 -6.453125 "/></g></g></g><g fill="#000000" fill-opacity="1"><g transform="translate(72.877451, 14.778866)"><g/></g></g><g fill="#000000" fill-opacity="1"><g transform="translate(76.119311, 14.778866)"><g><path d="M 3.09375 0 L 1 0 L 1 -10.28125 L 3.09375 -10.28125 Z M 3.09375 0 "/></g></g></g><g fill="#000000" fill-opacity="1"><g transform="translate(80.212165, 14.778866)"><g><path d="M 1.453125 -7.0625 C 1.984375 -7.769531 2.878906 -8.125 4.140625 -8.125 C 5.410156 -8.125 6.304688 -7.769531 6.828125 -7.0625 C 7.359375 -6.363281 7.625 -5.332031 7.625 -3.96875 C 7.625 -2.613281 7.359375 -1.582031 6.828125 -0.875 C 6.304688 -0.175781 5.410156 0.171875 4.140625 0.171875 C 2.878906 0.171875 1.984375 -0.179688 1.453125 -0.890625 C 0.921875 -1.597656 0.65625 -2.625 0.65625 -3.96875 C 0.65625 -5.320312 0.921875 -6.351562 1.453125 -7.0625 Z M 5.484375 -3.96875 C 5.484375 -5 5.390625 -5.679688 5.203125 -6.015625 C 5.023438 -6.359375 4.671875 -6.53125 4.140625 -6.53125 C 3.617188 -6.53125 3.257812 -6.359375 3.0625 -6.015625 C 2.875 -5.671875 2.78125 -4.988281 2.78125 -3.96875 C 2.78125 -2.957031 2.875 -2.28125 3.0625 -1.9375 C 3.257812 -1.59375 3.617188 -1.421875 4.140625 -1.421875 C 4.671875 -1.421875 5.023438 -1.585938 5.203125 -1.921875 C 5.390625 -2.265625 5.484375 -2.945312 5.484375 -3.96875 Z M 5.484375 -3.96875 "/></g></g></g><g fill="#000000" fill-opacity="1"><g transform="translate(88.478912, 14.778866)"><g><path d="M 1.453125 -7.0625 C 1.984375 -7.769531 2.878906 -8.125 4.140625 -8.125 C 5.410156 -8.125 6.304688 -7.769531 6.828125 -7.0625 C 7.359375 -6.363281 7.625 -5.332031 7.625 -3.96875 C 7.625 -2.613281 7.359375 -1.582031 6.828125 -0.875 C 6.304688 -0.175781 5.410156 0.171875 4.140625 0.171875 C 2.878906 0.171875 1.984375 -0.179688 1.453125 -0.890625 C 0.921875 -1.597656 0.65625 -2.625 0.65625 -3.96875 C 0.65625 -5.320312 0.921875 -6.351562 1.453125 -7.0625 Z M 5.484375 -3.96875 C 5.484375 -5 5.390625 -5.679688 5.203125 -6.015625 C 5.023438 -6.359375 4.671875 -6.53125 4.140625 -6.53125 C 3.617188 -6.53125 3.257812 -6.359375 3.0625 -6.015625 C 2.875 -5.671875 2.78125 -4.988281 2.78125 -3.96875 C 2.78125 -2.957031 2.875 -2.28125 3.0625 -1.9375 C 3.257812 -1.59375 3.617188 -1.421875 4.140625 -1.421875 C 4.671875 -1.421875 5.023438 -1.585938 5.203125 -1.921875 C 5.390625 -2.265625 5.484375 -2.945312 5.484375 -3.96875 Z M 5.484375 -3.96875 "/></g></g></g><g fill="#000000" fill-opacity="1"><g transform="translate(96.74566, 14.778866)"><g><path d="M 3.09375 -10.28125 L 3.09375 -4.3125 L 5.671875 -7.953125 L 8.203125 -7.953125 L 5.203125 -4.3125 L 5.203125 -4.25 L 8.53125 0 L 5.953125 0 L 3.09375 -4.15625 L 3.09375 0 L 1 0 L 1.046875 -4.34375 L 1 -10.28125 Z M 3.09375 -10.28125 "/></g></g></g><g fill="#000000" fill-opacity="1"><g transform="translate(104.850316, 14.778866)"><g/></g></g><g fill="#000000" fill-opacity="1"><g transform="translate(108.092177, 14.778866)"><g><path d="M 3.359375 -7.5625 L 4.96875 -7.5625 L 4.96875 -5.953125 L 3.328125 -5.953125 L 3.328125 -2.609375 C 3.328125 -2.171875 3.363281 -1.894531 3.4375 -1.78125 C 3.519531 -1.664062 3.675781 -1.609375 3.90625 -1.609375 L 4.953125 -1.671875 L 4.953125 0.03125 C 4.503906 0.125 4.015625 0.171875 3.484375 0.171875 C 2.703125 0.171875 2.128906 -0.0195312 1.765625 -0.40625 C 1.410156 -0.800781 1.234375 -1.550781 1.234375 -2.65625 L 1.234375 -5.984375 L 0.3125 -5.984375 L 0.3125 -7.296875 L 1.328125 -7.484375 L 1.640625 -9.359375 L 3.359375 -9.359375 Z M 3.359375 -7.5625 "/></g></g></g><g fill="#000000" fill-opacity="1"><g transform="translate(113.495278, 14.778866)"><g><path d="M 1.453125 -7.0625 C 1.984375 -7.769531 2.878906 -8.125 4.140625 -8.125 C 5.410156 -8.125 6.304688 -7.769531 6.828125 -7.0625 C 7.359375 -6.363281 7.625 -5.332031 7.625 -3.96875 C 7.625 -2.613281 7.359375 -1.582031 6.828125 -0.875 C 6.304688 -0.175781 5.410156 0.171875 4.140625 0.171875 C 2.878906 0.171875 1.984375 -0.179688 1.453125 -0.890625 C 0.921875 -1.597656 0.65625 -2.625 0.65625 -3.96875 C 0.65625 -5.320312 0.921875 -6.351562 1.453125 -7.0625 Z M 5.484375 -3.96875 C 5.484375 -5 5.390625 -5.679688 5.203125 -6.015625 C 5.023438 -6.359375 4.671875 -6.53125 4.140625 -6.53125 C 3.617188 -6.53125 3.257812 -6.359375 3.0625 -6.015625 C 2.875 -5.671875 2.78125 -4.988281 2.78125 -3.96875 C 2.78125 -2.957031 2.875 -2.28125 3.0625 -1.9375 C 3.257812 -1.59375 3.617188 -1.421875 4.140625 -1.421875 C 4.671875 -1.421875 5.023438 -1.585938 5.203125 -1.921875 C 5.390625 -2.265625 5.484375 -2.945312 5.484375 -3.96875 Z M 5.484375 -3.96875 "/></g></g></g><g fill="#000000" fill-opacity="1"><g transform="translate(121.762026, 14.778866)"><g/></g></g><g fill="#000000" fill-opacity="1"><g transform="translate(125.003886, 14.778866)"><g><path d="M 3.359375 -7.5625 L 4.96875 -7.5625 L 4.96875 -5.953125 L 3.328125 -5.953125 L 3.328125 -2.609375 C 3.328125 -2.171875 3.363281 -1.894531 3.4375 -1.78125 C 3.519531 -1.664062 3.675781 -1.609375 3.90625 -1.609375 L 4.953125 -1.671875 L 4.953125 0.03125 C 4.503906 0.125 4.015625 0.171875 3.484375 0.171875 C 2.703125 0.171875 2.128906 -0.0195312 1.765625 -0.40625 C 1.410156 -0.800781 1.234375 -1.550781 1.234375 -2.65625 L 1.234375 -5.984375 L 0.3125 -5.984375 L 0.3125 -7.296875 L 1.328125 -7.484375 L 1.640625 -9.359375 L 3.359375 -9.359375 Z M 3.359375 -7.5625 "/></g></g></g><g fill="#000000" fill-opacity="1"><g transform="translate(130.406988, 14.778866)"><g><path d="M 1 0 L 1 -10.28125 L 3.09375 -10.28125 L 3.09375 -7.453125 C 4.03125 -7.921875 4.863281 -8.15625 5.59375 -8.15625 C 6.320312 -8.15625 6.832031 -7.894531 7.125 -7.375 C 7.425781 -6.851562 7.578125 -6.128906 7.578125 -5.203125 L 7.578125 0 L 5.484375 0 L 5.484375 -4.84375 C 5.484375 -5.507812 5.421875 -5.921875 5.296875 -6.078125 C 5.171875 -6.242188 5.007812 -6.328125 4.8125 -6.328125 C 4.457031 -6.328125 3.882812 -6.164062 3.09375 -5.84375 L 3.09375 0 Z M 1 0 "/></g></g></g><g fill="#000000" fill-opacity="1"><g transform="translate(138.876346, 14.778866)"><g><path d="M 4.328125 0.171875 C 1.878906 0.171875 0.65625 -1.207031 0.65625 -3.96875 C 0.65625 -6.738281 1.867188 -8.125 4.296875 -8.125 C 5.390625 -8.125 6.207031 -7.832031 6.75 -7.25 C 7.300781 -6.664062 7.578125 -5.703125 7.578125 -4.359375 L 7.578125 -3.25 L 2.828125 -3.25 C 2.828125 -2.488281 2.96875 -1.988281 3.25 -1.75 C 3.4375 -1.570312 3.703125 -1.484375 4.046875 -1.484375 C 4.671875 -1.484375 5.472656 -1.628906 6.453125 -1.921875 L 6.921875 -2.0625 L 7.4375 -0.546875 C 7.03125 -0.359375 6.523438 -0.191406 5.921875 -0.046875 C 5.316406 0.0976562 4.785156 0.171875 4.328125 0.171875 Z M 5.203125 -6.171875 C 5.035156 -6.367188 4.707031 -6.46875 4.21875 -6.46875 C 3.738281 -6.46875 3.394531 -6.347656 3.1875 -6.109375 C 2.976562 -5.878906 2.863281 -5.425781 2.84375 -4.75 L 5.453125 -4.8125 C 5.429688 -5.519531 5.347656 -5.972656 5.203125 -6.171875 Z M 5.203125 -6.171875 "/></g></g></g><g fill="#000000" fill-opacity="1"><g transform="translate(147.035026, 14.778866)"><g/></g></g><g fill="#000000" fill-opacity="1"><g transform="translate(150.276886, 14.778866)"><g><path d="M 5.171875 -7.5625 L 5.171875 -5.953125 L 3.390625 -5.953125 L 3.390625 0 L 1.296875 0 L 1.296875 -5.984375 L 0.375 -5.984375 L 0.375 -7.296875 L 1.3125 -7.484375 C 1.394531 -8.585938 1.6875 -9.359375 2.1875 -9.796875 C 2.6875 -10.242188 3.367188 -10.46875 4.234375 -10.46875 L 5.453125 -10.40625 L 5.3125 -8.75 C 4.882812 -8.78125 4.515625 -8.796875 4.203125 -8.796875 C 3.890625 -8.796875 3.675781 -8.722656 3.5625 -8.578125 C 3.457031 -8.429688 3.398438 -8.09375 3.390625 -7.5625 Z M 5.171875 -7.5625 "/></g></g></g><g fill="#000000" fill-opacity="1"><g transform="translate(155.436847, 14.778866)"><g><path d="M 5.375 -7.953125 L 7.46875 -7.953125 L 7.46875 0 L 6.140625 0 L 5.875 -0.828125 L 5.796875 -0.828125 C 5.472656 -0.628906 5.203125 -0.472656 4.984375 -0.359375 C 4.765625 -0.242188 4.472656 -0.125 4.109375 0 C 3.753906 0.113281 3.421875 0.171875 3.109375 0.171875 C 2.273438 0.171875 1.695312 -0.0820312 1.375 -0.59375 C 1.050781 -1.101562 0.890625 -1.828125 0.890625 -2.765625 L 0.890625 -7.953125 L 2.984375 -7.953125 L 2.984375 -2.96875 C 2.984375 -2.300781 3.039062 -1.914062 3.15625 -1.8125 C 3.28125 -1.707031 3.472656 -1.65625 3.734375 -1.65625 C 4.285156 -1.65625 4.832031 -1.84375 5.375 -2.21875 Z M 5.375 -7.953125 "/></g></g></g><g fill="#000000" fill-opacity="1"><g transform="translate(163.973752, 14.778866)"><g><path d="M 3.359375 -7.5625 L 4.96875 -7.5625 L 4.96875 -5.953125 L 3.328125 -5.953125 L 3.328125 -2.609375 C 3.328125 -2.171875 3.363281 -1.894531 3.4375 -1.78125 C 3.519531 -1.664062 3.675781 -1.609375 3.90625 -1.609375 L 4.953125 -1.671875 L 4.953125 0.03125 C 4.503906 0.125 4.015625 0.171875 3.484375 0.171875 C 2.703125 0.171875 2.128906 -0.0195312 1.765625 -0.40625 C 1.410156 -0.800781 1.234375 -1.550781 1.234375 -2.65625 L 1.234375 -5.984375 L 0.3125 -5.984375 L 0.3125 -7.296875 L 1.328125 -7.484375 L 1.640625 -9.359375 L 3.359375 -9.359375 Z M 3.359375 -7.5625 "/></g></g></g><g fill="#000000" fill-opacity="1"><g transform="translate(169.376853, 14.778866)"><g><path d="M 5.375 -7.953125 L 7.46875 -7.953125 L 7.46875 0 L 6.140625 0 L 5.875 -0.828125 L 5.796875 -0.828125 C 5.472656 -0.628906 5.203125 -0.472656 4.984375 -0.359375 C 4.765625 -0.242188 4.472656 -0.125 4.109375 0 C 3.753906 0.113281 3.421875 0.171875 3.109375 0.171875 C 2.273438 0.171875 1.695312 -0.0820312 1.375 -0.59375 C 1.050781 -1.101562 0.890625 -1.828125 0.890625 -2.765625 L 0.890625 -7.953125 L 2.984375 -7.953125 L 2.984375 -2.96875 C 2.984375 -2.300781 3.039062 -1.914062 3.15625 -1.8125 C 3.28125 -1.707031 3.472656 -1.65625 3.734375 -1.65625 C 4.285156 -1.65625 4.832031 -1.84375 5.375 -2.21875 Z M 5.375 -7.953125 "/></g></g></g><g fill="#000000" fill-opacity="1"><g transform="translate(177.913758, 14.778866)"><g><path d="M 3.078125 -7.390625 C 3.222656 -7.503906 3.488281 -7.65625 3.875 -7.84375 C 4.257812 -8.03125 4.617188 -8.125 4.953125 -8.125 C 5.285156 -8.125 5.550781 -8.070312 5.75 -7.96875 L 5.59375 -6.15625 C 5.34375 -6.1875 5.097656 -6.203125 4.859375 -6.203125 C 4.253906 -6.203125 3.6875 -6.039062 3.15625 -5.71875 L 3.15625 0 L 1.0625 0 L 1.0625 -7.953125 L 2.359375 -7.953125 L 2.640625 -7.109375 L 2.71875 -7.109375 C 2.8125 -7.179688 2.929688 -7.273438 3.078125 -7.390625 Z M 3.078125 -7.390625 "/></g></g></g><g fill="#000000" fill-opacity="1"><g transform="translate(183.72209, 14.778866)"><g><path d="M 4.328125 0.171875 C 1.878906 0.171875 0.65625 -1.207031 0.65625 -3.96875 C 0.65625 -6.738281 1.867188 -8.125 4.296875 -8.125 C 5.390625 -8.125 6.207031 -7.832031 6.75 -7.25 C 7.300781 -6.664062 7.578125 -5.703125 7.578125 -4.359375 L 7.578125 -3.25 L 2.828125 -3.25 C 2.828125 -2.488281 2.96875 -1.988281 3.25 -1.75 C 3.4375 -1.570312 3.703125 -1.484375 4.046875 -1.484375 C 4.671875 -1.484375 5.472656 -1.628906 6.453125 -1.921875 L 6.921875 -2.0625 L 7.4375 -0.546875 C 7.03125 -0.359375 6.523438 -0.191406 5.921875 -0.046875 C 5.316406 0.0976562 4.785156 0.171875 4.328125 0.171875 Z M 5.203125 -6.171875 C 5.035156 -6.367188 4.707031 -6.46875 4.21875 -6.46875 C 3.738281 -6.46875 3.394531 -6.347656 3.1875 -6.109375 C 2.976562 -5.878906 2.863281 -5.425781 2.84375 -4.75 L 5.453125 -4.8125 C 5.429688 -5.519531 5.347656 -5.972656 5.203125 -6.171875 Z M 5.203125 -6.171875 "/></g></g></g></svg>