<svg xmlns="http://www.w3.org/2000/svg" xmlns:xlink="http://www.w3.org/1999/xlink" width="293" zoomAndPan="magnify" viewBox="0 0 219.75 30.000001" height="40" preserveAspectRatio="xMidYMid meet" version="1.0"><defs><g/><clipPath id="9d820019f2"><path d="M 193 11.625 L 216.085938 11.625 L 216.085938 29.03125 L 193 29.03125 Z M 193 11.625 " clip-rule="nonzero"/></clipPath><clipPath id="d67de98714"><path d="M 3.433594 11.625 L 27 11.625 L 27 29.03125 L 3.433594 29.03125 Z M 3.433594 11.625 " clip-rule="nonzero"/></clipPath><clipPath id="f1e4c31c5c"><path d="M 9.066406 18.527344 L 210.285156 18.527344 L 210.285156 22.164062 L 9.066406 22.164062 Z M 9.066406 18.527344 " clip-rule="nonzero"/></clipPath></defs><g clip-path="url(#9d820019f2)"><path fill="#fece00" d="M 205.070312 12.316406 C 205.03125 12.136719 204.984375 11.886719 204.984375 11.648438 L 207.527344 11.648438 L 207.527344 11.632812 C 207.527344 11.628906 207.527344 11.625 207.527344 11.625 C 207.527344 11.625 207.527344 11.628906 207.527344 11.632812 C 207.53125 11.648438 207.539062 11.695312 207.554688 11.777344 C 207.582031 11.902344 207.625 12.0625 207.679688 12.25 C 207.789062 12.617188 207.929688 13.023438 208.054688 13.332031 C 208.746094 15.039062 209.910156 16.492188 211.398438 17.511719 C 212.808594 18.476562 214.449219 19.011719 216.132812 19.070312 L 216.308594 19.070312 L 216.308594 21.617188 C 214.519531 21.617188 212.890625 22.160156 211.398438 23.179688 C 209.910156 24.199219 208.746094 25.652344 208.054688 27.359375 C 207.929688 27.667969 207.789062 28.074219 207.679688 28.441406 C 207.625 28.628906 207.582031 28.789062 207.554688 28.914062 C 207.539062 28.996094 207.53125 29.042969 207.527344 29.058594 C 207.527344 29.0625 207.527344 29.066406 207.527344 29.066406 C 207.527344 29.066406 207.527344 29.0625 207.527344 29.058594 C 207.527344 29.054688 207.527344 29.050781 207.527344 29.042969 L 204.984375 29.042969 C 204.984375 28.804688 205.03125 28.554688 205.070312 28.375 C 205.117188 28.167969 205.175781 27.945312 205.242188 27.722656 C 205.371094 27.28125 205.539062 26.796875 205.699219 26.40625 C 206.460938 24.519531 207.683594 22.871094 209.25 21.613281 L 193.0625 21.613281 L 193.0625 19.070312 L 209.238281 19.070312 C 207.675781 17.8125 206.457031 16.167969 205.699219 14.285156 C 205.539062 13.894531 205.371094 13.410156 205.242188 12.96875 C 205.175781 12.746094 205.117188 12.523438 205.070312 12.316406 Z M 205.070312 12.316406 " fill-opacity="1" fill-rule="evenodd"/></g><g clip-path="url(#d67de98714)"><path fill="#fece00" d="M 14.675781 28.375 C 14.714844 28.554688 14.761719 28.804688 14.761719 29.042969 L 12.21875 29.042969 L 12.21875 29.058594 C 12.21875 29.0625 12.21875 29.066406 12.21875 29.066406 C 12.21875 29.066406 12.21875 29.0625 12.21875 29.058594 C 12.214844 29.042969 12.210938 28.996094 12.191406 28.914062 C 12.164062 28.789062 12.121094 28.628906 12.066406 28.441406 C 11.957031 28.074219 11.816406 27.667969 11.691406 27.359375 C 11.003906 25.652344 9.835938 24.199219 8.347656 23.179688 C 6.9375 22.214844 5.296875 21.679688 3.617188 21.621094 L 3.441406 21.621094 L 3.441406 19.074219 C 5.226562 19.074219 6.855469 18.53125 8.347656 17.511719 C 9.835938 16.492188 11.003906 15.039062 11.691406 13.332031 C 11.816406 13.023438 11.957031 12.617188 12.066406 12.25 C 12.121094 12.0625 12.164062 11.902344 12.191406 11.777344 C 12.210938 11.695312 12.214844 11.648438 12.21875 11.632812 C 12.21875 11.628906 12.21875 11.625 12.21875 11.625 C 12.21875 11.625 12.21875 11.628906 12.21875 11.632812 C 12.21875 11.636719 12.21875 11.640625 12.21875 11.648438 L 14.761719 11.648438 C 14.761719 11.886719 14.714844 12.136719 14.675781 12.316406 C 14.628906 12.523438 14.570312 12.746094 14.503906 12.96875 C 14.375 13.410156 14.207031 13.894531 14.046875 14.285156 C 13.285156 16.171875 12.0625 17.820312 10.496094 19.078125 L 26.683594 19.078125 L 26.683594 21.621094 L 10.507812 21.621094 C 12.070312 22.878906 13.289062 24.523438 14.046875 26.40625 C 14.207031 26.796875 14.375 27.28125 14.503906 27.722656 C 14.570312 27.945312 14.628906 28.167969 14.675781 28.375 Z M 14.675781 28.375 " fill-opacity="1" fill-rule="evenodd"/></g><g clip-path="url(#f1e4c31c5c)"><path fill="#fdcc01" d="M 9.066406 18.527344 L 210.296875 18.527344 L 210.296875 22.207031 L 9.066406 22.207031 Z M 9.066406 18.527344 " fill-opacity="1" fill-rule="nonzero"/></g><g fill="#000000" fill-opacity="1"><g transform="translate(16.459653, 16.976161)"><g><path d="M 2.265625 0 L -0.171875 0 L 2.90625 -10.734375 L 5.765625 -10.734375 L 8.84375 0 L 6.40625 0 L 5.796875 -2.375 L 2.875 -2.375 Z M 5.34375 -4.390625 L 4.375 -8.53125 L 4.296875 -8.53125 L 3.328125 -4.390625 Z M 5.34375 -4.390625 "/></g></g></g><g fill="#000000" fill-opacity="1"><g transform="translate(25.208775, 16.976161)"><g><path d="M 3.5 0 L 1.125 0 L 1.125 -11.625 L 3.5 -11.625 Z M 3.5 0 "/></g></g></g><g fill="#000000" fill-opacity="1"><g transform="translate(29.835278, 16.976161)"><g><path d="M 12.046875 -8.96875 L 10.28125 0 L 7.28125 0 L 6.234375 -6.03125 L 6.140625 -6.03125 L 5.078125 0 L 2.09375 0 L 0.3125 -8.96875 L 2.6875 -8.96875 L 3.625 -1.734375 L 3.703125 -1.734375 L 4.765625 -7.734375 L 7.609375 -7.734375 L 8.671875 -1.734375 L 8.765625 -1.734375 L 9.65625 -8.96875 Z M 12.046875 -8.96875 "/></g></g></g><g fill="#000000" fill-opacity="1"><g transform="translate(42.111531, 16.976161)"><g><path d="M 3.390625 0.203125 C 2.640625 0.203125 2.015625 -0.0546875 1.515625 -0.578125 C 1.023438 -1.097656 0.78125 -1.847656 0.78125 -2.828125 C 0.78125 -3.816406 1.128906 -4.535156 1.828125 -4.984375 C 2.523438 -5.429688 3.539062 -5.65625 4.875 -5.65625 L 6.015625 -5.65625 C 6.015625 -6.34375 5.945312 -6.785156 5.8125 -6.984375 C 5.6875 -7.179688 5.390625 -7.28125 4.921875 -7.28125 C 4.460938 -7.28125 3.945312 -7.226562 3.375 -7.125 C 2.8125 -7.019531 2.1875 -6.867188 1.5 -6.671875 L 1 -8.375 C 1.425781 -8.570312 2.023438 -8.753906 2.796875 -8.921875 C 3.578125 -9.085938 4.273438 -9.171875 4.890625 -9.171875 C 6.140625 -9.171875 7.03125 -8.882812 7.5625 -8.3125 C 8.101562 -7.738281 8.375 -6.898438 8.375 -5.796875 L 8.375 0 L 6.890625 0 L 6.578125 -1 L 6.484375 -1 C 6.367188 -0.90625 6.207031 -0.789062 6 -0.65625 C 5.800781 -0.519531 5.425781 -0.34375 4.875 -0.125 C 4.332031 0.09375 3.835938 0.203125 3.390625 0.203125 Z M 6.015625 -3.90625 C 5.660156 -3.957031 5.179688 -3.984375 4.578125 -3.984375 C 3.984375 -3.984375 3.601562 -3.90625 3.4375 -3.75 C 3.269531 -3.601562 3.1875 -3.316406 3.1875 -2.890625 C 3.1875 -2.460938 3.253906 -2.160156 3.390625 -1.984375 C 3.535156 -1.816406 3.75 -1.734375 4.03125 -1.734375 C 4.5625 -1.734375 5.117188 -1.878906 5.703125 -2.171875 L 6.015625 -2.328125 Z M 6.015625 -3.90625 "/></g></g></g><g fill="#000000" fill-opacity="1"><g transform="translate(51.608827, 16.976161)"><g><path d="M 1.78125 2.53125 L 3.109375 -0.78125 L -0.0625 -8.96875 L 2.5625 -8.96875 L 4.140625 -2.984375 L 4.234375 -2.984375 L 5.828125 -8.96875 L 8.265625 -8.96875 L 5.09375 -0.46875 L 4.25 2.53125 Z M 1.78125 2.53125 "/></g></g></g><g fill="#000000" fill-opacity="1"><g transform="translate(59.854067, 16.976161)"><g><path d="M 3.953125 -7.28125 C 3.566406 -7.28125 3.3125 -7.226562 3.1875 -7.125 C 3.070312 -7.03125 3.015625 -6.882812 3.015625 -6.6875 C 3.015625 -6.5 3.101562 -6.332031 3.28125 -6.1875 C 3.457031 -6.039062 3.628906 -5.929688 3.796875 -5.859375 C 3.972656 -5.796875 4.175781 -5.734375 4.40625 -5.671875 C 4.632812 -5.609375 4.972656 -5.507812 5.421875 -5.375 C 5.878906 -5.238281 6.238281 -5.101562 6.5 -4.96875 C 7.28125 -4.53125 7.671875 -3.828125 7.671875 -2.859375 C 7.671875 -1.898438 7.375 -1.148438 6.78125 -0.609375 C 6.195312 -0.0664062 5.375 0.203125 4.3125 0.203125 C 3.75 0.203125 3.160156 0.128906 2.546875 -0.015625 C 1.941406 -0.171875 1.46875 -0.316406 1.125 -0.453125 L 0.640625 -0.6875 L 1.21875 -2.546875 C 2.507812 -1.992188 3.566406 -1.71875 4.390625 -1.71875 C 4.710938 -1.71875 4.945312 -1.773438 5.09375 -1.890625 C 5.25 -2.003906 5.328125 -2.207031 5.328125 -2.5 C 5.328125 -2.6875 5.296875 -2.816406 5.234375 -2.890625 C 5.171875 -2.972656 5.117188 -3.035156 5.078125 -3.078125 C 5.035156 -3.128906 4.972656 -3.175781 4.890625 -3.21875 C 4.816406 -3.269531 4.75 -3.304688 4.6875 -3.328125 C 4.632812 -3.359375 4.550781 -3.394531 4.4375 -3.4375 C 4.332031 -3.476562 4.25 -3.507812 4.1875 -3.53125 C 4.125 -3.550781 4.019531 -3.578125 3.875 -3.609375 C 3.726562 -3.648438 3.566406 -3.695312 3.390625 -3.75 C 3.210938 -3.8125 3.078125 -3.859375 2.984375 -3.890625 C 2.898438 -3.921875 2.722656 -3.988281 2.453125 -4.09375 C 2.179688 -4.195312 1.988281 -4.285156 1.875 -4.359375 C 1.769531 -4.429688 1.625 -4.539062 1.4375 -4.6875 C 1.25 -4.84375 1.113281 -5 1.03125 -5.15625 C 0.820312 -5.601562 0.71875 -6.050781 0.71875 -6.5 C 0.71875 -7.332031 0.992188 -7.984375 1.546875 -8.453125 C 2.109375 -8.929688 2.945312 -9.171875 4.0625 -9.171875 C 5.175781 -9.171875 6.253906 -9 7.296875 -8.65625 L 6.953125 -6.828125 C 5.773438 -7.128906 4.773438 -7.28125 3.953125 -7.28125 Z M 3.953125 -7.28125 "/></g></g></g><g fill="#000000" fill-opacity="1"><g transform="translate(68.053504, 16.976161)"><g/></g></g><g fill="#000000" fill-opacity="1"><g transform="translate(71.718056, 16.976161)"><g><path d="M 3.5 0 L 1.125 0 L 1.125 -11.625 L 3.5 -11.625 Z M 3.5 0 "/></g></g></g><g fill="#000000" fill-opacity="1"><g transform="translate(76.344558, 16.976161)"><g><path d="M 1.640625 -7.96875 C 2.242188 -8.769531 3.257812 -9.171875 4.6875 -9.171875 C 6.113281 -9.171875 7.125 -8.773438 7.71875 -7.984375 C 8.3125 -7.191406 8.609375 -6.023438 8.609375 -4.484375 C 8.609375 -2.953125 8.3125 -1.785156 7.71875 -0.984375 C 7.125 -0.191406 6.113281 0.203125 4.6875 0.203125 C 3.257812 0.203125 2.242188 -0.195312 1.640625 -1 C 1.035156 -1.800781 0.734375 -2.960938 0.734375 -4.484375 C 0.734375 -6.015625 1.035156 -7.175781 1.640625 -7.96875 Z M 6.203125 -4.484375 C 6.203125 -5.648438 6.097656 -6.421875 5.890625 -6.796875 C 5.679688 -7.179688 5.273438 -7.375 4.671875 -7.375 C 4.078125 -7.375 3.671875 -7.179688 3.453125 -6.796875 C 3.242188 -6.410156 3.140625 -5.640625 3.140625 -4.484375 C 3.140625 -3.335938 3.242188 -2.570312 3.453125 -2.1875 C 3.671875 -1.800781 4.078125 -1.609375 4.671875 -1.609375 C 5.273438 -1.609375 5.679688 -1.796875 5.890625 -2.171875 C 6.097656 -2.554688 6.203125 -3.328125 6.203125 -4.484375 Z M 6.203125 -4.484375 "/></g></g></g><g fill="#000000" fill-opacity="1"><g transform="translate(85.689169, 16.976161)"><g><path d="M 1.640625 -7.96875 C 2.242188 -8.769531 3.257812 -9.171875 4.6875 -9.171875 C 6.113281 -9.171875 7.125 -8.773438 7.71875 -7.984375 C 8.3125 -7.191406 8.609375 -6.023438 8.609375 -4.484375 C 8.609375 -2.953125 8.3125 -1.785156 7.71875 -0.984375 C 7.125 -0.191406 6.113281 0.203125 4.6875 0.203125 C 3.257812 0.203125 2.242188 -0.195312 1.640625 -1 C 1.035156 -1.800781 0.734375 -2.960938 0.734375 -4.484375 C 0.734375 -6.015625 1.035156 -7.175781 1.640625 -7.96875 Z M 6.203125 -4.484375 C 6.203125 -5.648438 6.097656 -6.421875 5.890625 -6.796875 C 5.679688 -7.179688 5.273438 -7.375 4.671875 -7.375 C 4.078125 -7.375 3.671875 -7.179688 3.453125 -6.796875 C 3.242188 -6.410156 3.140625 -5.640625 3.140625 -4.484375 C 3.140625 -3.335938 3.242188 -2.570312 3.453125 -2.1875 C 3.671875 -1.800781 4.078125 -1.609375 4.671875 -1.609375 C 5.273438 -1.609375 5.679688 -1.796875 5.890625 -2.171875 C 6.097656 -2.554688 6.203125 -3.328125 6.203125 -4.484375 Z M 6.203125 -4.484375 "/></g></g></g><g fill="#000000" fill-opacity="1"><g transform="translate(95.033781, 16.976161)"><g><path d="M 3.5 -11.625 L 3.5 -4.875 L 6.40625 -8.96875 L 9.265625 -8.96875 L 5.875 -4.875 L 5.875 -4.796875 L 9.625 0 L 6.734375 0 L 3.5 -4.703125 L 3.5 0 L 1.125 0 L 1.1875 -4.90625 L 1.125 -11.625 Z M 3.5 -11.625 "/></g></g></g><g fill="#000000" fill-opacity="1"><g transform="translate(104.195167, 16.976161)"><g/></g></g><g fill="#000000" fill-opacity="1"><g transform="translate(107.859719, 16.976161)"><g><path d="M 3.78125 -8.53125 L 5.625 -8.53125 L 5.625 -6.71875 L 3.75 -6.71875 L 3.75 -2.953125 C 3.75 -2.460938 3.796875 -2.148438 3.890625 -2.015625 C 3.984375 -1.878906 4.15625 -1.8125 4.40625 -1.8125 L 5.59375 -1.890625 L 5.59375 0.03125 C 5.09375 0.144531 4.539062 0.203125 3.9375 0.203125 C 3.050781 0.203125 2.40625 -0.015625 2 -0.453125 C 1.59375 -0.898438 1.390625 -1.75 1.390625 -3 L 1.390625 -6.765625 L 0.34375 -6.765625 L 0.34375 -8.25 L 1.5 -8.453125 L 1.84375 -10.578125 L 3.78125 -10.578125 Z M 3.78125 -8.53125 "/></g></g></g><g fill="#000000" fill-opacity="1"><g transform="translate(113.967306, 16.976161)"><g><path d="M 1.640625 -7.96875 C 2.242188 -8.769531 3.257812 -9.171875 4.6875 -9.171875 C 6.113281 -9.171875 7.125 -8.773438 7.71875 -7.984375 C 8.3125 -7.191406 8.609375 -6.023438 8.609375 -4.484375 C 8.609375 -2.953125 8.3125 -1.785156 7.71875 -0.984375 C 7.125 -0.191406 6.113281 0.203125 4.6875 0.203125 C 3.257812 0.203125 2.242188 -0.195312 1.640625 -1 C 1.035156 -1.800781 0.734375 -2.960938 0.734375 -4.484375 C 0.734375 -6.015625 1.035156 -7.175781 1.640625 -7.96875 Z M 6.203125 -4.484375 C 6.203125 -5.648438 6.097656 -6.421875 5.890625 -6.796875 C 5.679688 -7.179688 5.273438 -7.375 4.671875 -7.375 C 4.078125 -7.375 3.671875 -7.179688 3.453125 -6.796875 C 3.242188 -6.410156 3.140625 -5.640625 3.140625 -4.484375 C 3.140625 -3.335938 3.242188 -2.570312 3.453125 -2.1875 C 3.671875 -1.800781 4.078125 -1.609375 4.671875 -1.609375 C 5.273438 -1.609375 5.679688 -1.796875 5.890625 -2.171875 C 6.097656 -2.554688 6.203125 -3.328125 6.203125 -4.484375 Z M 6.203125 -4.484375 "/></g></g></g><g fill="#000000" fill-opacity="1"><g transform="translate(123.311918, 16.976161)"><g/></g></g><g fill="#000000" fill-opacity="1"><g transform="translate(126.97647, 16.976161)"><g><path d="M 3.78125 -8.53125 L 5.625 -8.53125 L 5.625 -6.71875 L 3.75 -6.71875 L 3.75 -2.953125 C 3.75 -2.460938 3.796875 -2.148438 3.890625 -2.015625 C 3.984375 -1.878906 4.15625 -1.8125 4.40625 -1.8125 L 5.59375 -1.890625 L 5.59375 0.03125 C 5.09375 0.144531 4.539062 0.203125 3.9375 0.203125 C 3.050781 0.203125 2.40625 -0.015625 2 -0.453125 C 1.59375 -0.898438 1.390625 -1.75 1.390625 -3 L 1.390625 -6.765625 L 0.34375 -6.765625 L 0.34375 -8.25 L 1.5 -8.453125 L 1.84375 -10.578125 L 3.78125 -10.578125 Z M 3.78125 -8.53125 "/></g></g></g><g fill="#000000" fill-opacity="1"><g transform="translate(133.084057, 16.976161)"><g><path d="M 1.125 0 L 1.125 -11.625 L 3.5 -11.625 L 3.5 -8.40625 C 4.550781 -8.9375 5.488281 -9.203125 6.3125 -9.203125 C 7.144531 -9.203125 7.726562 -8.910156 8.0625 -8.328125 C 8.394531 -7.742188 8.5625 -6.925781 8.5625 -5.875 L 8.5625 0 L 6.203125 0 L 6.203125 -5.46875 C 6.203125 -6.21875 6.128906 -6.679688 5.984375 -6.859375 C 5.835938 -7.046875 5.65625 -7.140625 5.4375 -7.140625 C 5.039062 -7.140625 4.394531 -6.957031 3.5 -6.59375 L 3.5 0 Z M 1.125 0 "/></g></g></g><g fill="#000000" fill-opacity="1"><g transform="translate(142.657697, 16.976161)"><g><path d="M 4.890625 0.203125 C 2.117188 0.203125 0.734375 -1.359375 0.734375 -4.484375 C 0.734375 -7.609375 2.109375 -9.171875 4.859375 -9.171875 C 6.085938 -9.171875 7.007812 -8.84375 7.625 -8.1875 C 8.25 -7.53125 8.5625 -6.445312 8.5625 -4.9375 L 8.5625 -3.65625 L 3.1875 -3.65625 C 3.1875 -2.800781 3.34375 -2.238281 3.65625 -1.96875 C 3.875 -1.769531 4.175781 -1.671875 4.5625 -1.671875 C 5.28125 -1.671875 6.1875 -1.835938 7.28125 -2.171875 L 7.8125 -2.328125 L 8.390625 -0.625 C 7.929688 -0.414062 7.359375 -0.222656 6.671875 -0.046875 C 5.992188 0.117188 5.398438 0.203125 4.890625 0.203125 Z M 5.875 -6.96875 C 5.695312 -7.195312 5.332031 -7.3125 4.78125 -7.3125 C 4.226562 -7.3125 3.832031 -7.175781 3.59375 -6.90625 C 3.363281 -6.644531 3.234375 -6.132812 3.203125 -5.375 L 6.15625 -5.4375 C 6.132812 -6.238281 6.039062 -6.75 5.875 -6.96875 Z M 5.875 -6.96875 "/></g></g></g><g fill="#000000" fill-opacity="1"><g transform="translate(151.88015, 16.976161)"><g/></g></g><g fill="#000000" fill-opacity="1"><g transform="translate(155.544703, 16.976161)"><g><path d="M 5.84375 -8.53125 L 5.84375 -6.71875 L 3.828125 -6.71875 L 3.828125 0 L 1.46875 0 L 1.46875 -6.765625 L 0.421875 -6.765625 L 0.421875 -8.25 L 1.484375 -8.453125 C 1.578125 -9.691406 1.90625 -10.5625 2.46875 -11.0625 C 3.03125 -11.5625 3.800781 -11.8125 4.78125 -11.8125 L 6.171875 -11.75 L 6 -9.875 C 5.519531 -9.914062 5.101562 -9.9375 4.75 -9.9375 C 4.394531 -9.9375 4.15625 -9.851562 4.03125 -9.6875 C 3.90625 -9.53125 3.835938 -9.144531 3.828125 -8.53125 Z M 5.84375 -8.53125 "/></g></g></g><g fill="#000000" fill-opacity="1"><g transform="translate(161.377447, 16.976161)"><g><path d="M 6.078125 -8.96875 L 8.4375 -8.96875 L 8.4375 0 L 6.9375 0 L 6.640625 -0.9375 L 6.546875 -0.9375 C 6.179688 -0.707031 5.875 -0.53125 5.625 -0.40625 C 5.382812 -0.28125 5.0625 -0.144531 4.65625 0 C 4.25 0.132812 3.867188 0.203125 3.515625 0.203125 C 2.566406 0.203125 1.910156 -0.0859375 1.546875 -0.671875 C 1.179688 -1.253906 1 -2.070312 1 -3.125 L 1 -8.96875 L 3.375 -8.96875 L 3.375 -3.359375 C 3.375 -2.609375 3.4375 -2.171875 3.5625 -2.046875 C 3.695312 -1.921875 3.914062 -1.859375 4.21875 -1.859375 C 4.832031 -1.859375 5.453125 -2.070312 6.078125 -2.5 Z M 6.078125 -8.96875 "/></g></g></g><g fill="#000000" fill-opacity="1"><g transform="translate(171.02744, 16.976161)"><g><path d="M 3.78125 -8.53125 L 5.625 -8.53125 L 5.625 -6.71875 L 3.75 -6.71875 L 3.75 -2.953125 C 3.75 -2.460938 3.796875 -2.148438 3.890625 -2.015625 C 3.984375 -1.878906 4.15625 -1.8125 4.40625 -1.8125 L 5.59375 -1.890625 L 5.59375 0.03125 C 5.09375 0.144531 4.539062 0.203125 3.9375 0.203125 C 3.050781 0.203125 2.40625 -0.015625 2 -0.453125 C 1.59375 -0.898438 1.390625 -1.75 1.390625 -3 L 1.390625 -6.765625 L 0.34375 -6.765625 L 0.34375 -8.25 L 1.5 -8.453125 L 1.84375 -10.578125 L 3.78125 -10.578125 Z M 3.78125 -8.53125 "/></g></g></g><g fill="#000000" fill-opacity="1"><g transform="translate(177.135027, 16.976161)"><g><path d="M 6.078125 -8.96875 L 8.4375 -8.96875 L 8.4375 0 L 6.9375 0 L 6.640625 -0.9375 L 6.546875 -0.9375 C 6.179688 -0.707031 5.875 -0.53125 5.625 -0.40625 C 5.382812 -0.28125 5.0625 -0.144531 4.65625 0 C 4.25 0.132812 3.867188 0.203125 3.515625 0.203125 C 2.566406 0.203125 1.910156 -0.0859375 1.546875 -0.671875 C 1.179688 -1.253906 1 -2.070312 1 -3.125 L 1 -8.96875 L 3.375 -8.96875 L 3.375 -3.359375 C 3.375 -2.609375 3.4375 -2.171875 3.5625 -2.046875 C 3.695312 -1.921875 3.914062 -1.859375 4.21875 -1.859375 C 4.832031 -1.859375 5.453125 -2.070312 6.078125 -2.5 Z M 6.078125 -8.96875 "/></g></g></g><g fill="#000000" fill-opacity="1"><g transform="translate(186.785021, 16.976161)"><g><path d="M 3.46875 -8.34375 C 3.632812 -8.46875 3.929688 -8.632812 4.359375 -8.84375 C 4.796875 -9.0625 5.207031 -9.171875 5.59375 -9.171875 C 5.976562 -9.171875 6.28125 -9.113281 6.5 -9 L 6.3125 -6.96875 C 6.03125 -6.988281 5.753906 -7 5.484375 -7 C 4.796875 -7 4.160156 -6.816406 3.578125 -6.453125 L 3.578125 0 L 1.203125 0 L 1.203125 -8.96875 L 2.671875 -8.96875 L 2.984375 -8.03125 L 3.0625 -8.03125 C 3.164062 -8.113281 3.300781 -8.21875 3.46875 -8.34375 Z M 3.46875 -8.34375 "/></g></g></g><g fill="#000000" fill-opacity="1"><g transform="translate(193.350676, 16.976161)"><g><path d="M 4.890625 0.203125 C 2.117188 0.203125 0.734375 -1.359375 0.734375 -4.484375 C 0.734375 -7.609375 2.109375 -9.171875 4.859375 -9.171875 C 6.085938 -9.171875 7.007812 -8.84375 7.625 -8.1875 C 8.25 -7.53125 8.5625 -6.445312 8.5625 -4.9375 L 8.5625 -3.65625 L 3.1875 -3.65625 C 3.1875 -2.800781 3.34375 -2.238281 3.65625 -1.96875 C 3.875 -1.769531 4.175781 -1.671875 4.5625 -1.671875 C 5.28125 -1.671875 6.1875 -1.835938 7.28125 -2.171875 L 7.8125 -2.328125 L 8.390625 -0.625 C 7.929688 -0.414062 7.359375 -0.222656 6.671875 -0.046875 C 5.992188 0.117188 5.398438 0.203125 4.890625 0.203125 Z M 5.875 -6.96875 C 5.695312 -7.195312 5.332031 -7.3125 4.78125 -7.3125 C 4.226562 -7.3125 3.832031 -7.175781 3.59375 -6.90625 C 3.363281 -6.644531 3.234375 -6.132812 3.203125 -5.375 L 6.15625 -5.4375 C 6.132812 -6.238281 6.039062 -6.75 5.875 -6.96875 Z M 5.875 -6.96875 "/></g></g></g></svg>