<svg xmlns="http://www.w3.org/2000/svg" xmlns:xlink="http://www.w3.org/1999/xlink" width="40" zoomAndPan="magnify" viewBox="0 0 30 30.000001" height="40" preserveAspectRatio="xMidYMid meet" version="1.0"><defs><clipPath id="9a7cab3c51"><path d="M 18 15 L 29.515625 15 L 29.515625 23 L 18 23 Z M 18 15 " clip-rule="nonzero"/></clipPath><clipPath id="4dccadb516"><path d="M 18 14 L 29.515625 14 L 29.515625 23 L 18 23 Z M 18 14 " clip-rule="nonzero"/></clipPath><clipPath id="30ec92177e"><path d="M 0.484375 15 L 12 15 L 12 23 L 0.484375 23 Z M 0.484375 15 " clip-rule="nonzero"/></clipPath><clipPath id="d668778bac"><path d="M 0.484375 14 L 12 14 L 12 23 L 0.484375 23 Z M 0.484375 14 " clip-rule="nonzero"/></clipPath><clipPath id="48be837c34"><path d="M 6 16 L 24 16 L 24 24.660156 L 6 24.660156 Z M 6 16 " clip-rule="nonzero"/></clipPath><clipPath id="b5111dd046"><path d="M 6 15 L 24 15 L 24 24.660156 L 6 24.660156 Z M 6 15 " clip-rule="nonzero"/></clipPath><clipPath id="d0c441ca1c"><path d="M 9 4.335938 L 21 4.335938 L 21 15 L 9 15 Z M 9 4.335938 " clip-rule="nonzero"/></clipPath></defs><g clip-path="url(#9a7cab3c51)"><path fill="#faa231" d="M 23.277344 22.125 L 29.316406 22.125 C 28.597656 16.570312 25.816406 15.0625 22.496094 15.0625 C 21.046875 15.0625 19.699219 15.351562 18.582031 16.136719 C 20.917969 17.058594 22.472656 19.042969 23.277344 22.125 " fill-opacity="1" fill-rule="nonzero"/></g><g clip-path="url(#4dccadb516)"><path fill="#faa231" d="M 23.277344 22.125 L 23.277344 22.316406 L 29.316406 22.316406 C 29.375 22.316406 29.425781 22.292969 29.464844 22.25 C 29.5 22.210938 29.515625 22.152344 29.511719 22.097656 C 29.328125 20.695312 29.015625 19.542969 28.59375 18.597656 C 27.957031 17.183594 27.070312 16.242188 26.019531 15.664062 C 24.96875 15.085938 23.761719 14.871094 22.496094 14.871094 C 21.757812 14.871094 21.042969 14.941406 20.367188 15.117188 C 19.6875 15.292969 19.050781 15.570312 18.472656 15.976562 C 18.414062 16.019531 18.382812 16.089844 18.390625 16.160156 C 18.398438 16.230469 18.445312 16.289062 18.511719 16.316406 C 19.648438 16.765625 20.589844 17.46875 21.351562 18.441406 C 22.113281 19.410156 22.691406 20.652344 23.085938 22.171875 C 23.109375 22.257812 23.1875 22.316406 23.277344 22.316406 L 23.277344 22.125 L 23.464844 22.074219 C 23.054688 20.515625 22.457031 19.222656 21.65625 18.203125 C 20.855469 17.179688 19.851562 16.429688 18.652344 15.957031 L 18.582031 16.136719 L 18.695312 16.296875 C 19.230469 15.917969 19.824219 15.660156 20.464844 15.492188 C 21.101562 15.328125 21.785156 15.257812 22.496094 15.257812 C 23.3125 15.257812 24.089844 15.351562 24.804688 15.570312 C 25.878906 15.902344 26.816406 16.519531 27.558594 17.5625 C 28.304688 18.605469 28.859375 20.085938 29.125 22.148438 L 29.316406 22.125 L 29.316406 21.929688 L 23.277344 21.929688 L 23.277344 22.125 L 23.464844 22.074219 L 23.277344 22.125 " fill-opacity="1" fill-rule="nonzero"/></g><path fill="#faa231" d="M 22.496094 5.433594 C 21.425781 5.433594 20.449219 5.828125 19.699219 6.480469 C 20.3125 7.378906 20.671875 8.460938 20.671875 9.628906 C 20.671875 10.828125 20.285156 11.941406 19.640625 12.855469 C 20.394531 13.535156 21.394531 13.957031 22.496094 13.957031 C 24.855469 13.957031 26.765625 12.046875 26.765625 9.695312 C 26.765625 7.339844 24.855469 5.433594 22.496094 5.433594 " fill-opacity="1" fill-rule="nonzero"/><path fill="#faa231" d="M 22.496094 5.433594 L 22.496094 5.238281 C 21.375 5.238281 20.355469 5.652344 19.570312 6.335938 C 19.496094 6.398438 19.480469 6.507812 19.539062 6.589844 C 20.128906 7.457031 20.476562 8.5 20.476562 9.628906 C 20.476562 10.789062 20.105469 11.859375 19.480469 12.742188 C 19.421875 12.820312 19.4375 12.933594 19.507812 12.996094 C 20.300781 13.710938 21.347656 14.148438 22.496094 14.148438 C 24.960938 14.148438 26.960938 12.15625 26.960938 9.695312 C 26.960938 7.234375 24.960938 5.238281 22.496094 5.238281 L 22.496094 5.625 C 23.621094 5.625 24.640625 6.082031 25.378906 6.816406 C 26.117188 7.554688 26.570312 8.570312 26.570312 9.695312 C 26.570312 10.816406 26.117188 11.832031 25.378906 12.570312 C 24.640625 13.308594 23.621094 13.761719 22.496094 13.761719 C 21.445312 13.761719 20.492188 13.363281 19.769531 12.710938 L 19.640625 12.855469 L 19.796875 12.964844 C 20.46875 12.023438 20.867188 10.871094 20.867188 9.628906 C 20.867188 8.421875 20.492188 7.300781 19.859375 6.371094 L 19.699219 6.480469 L 19.824219 6.628906 C 20.542969 6.003906 21.472656 5.625 22.496094 5.625 L 22.496094 5.433594 " fill-opacity="1" fill-rule="nonzero"/><g clip-path="url(#30ec92177e)"><path fill="#faa231" d="M 6.722656 22.125 L 0.683594 22.125 C 1.402344 16.570312 4.183594 15.0625 7.503906 15.0625 C 8.953125 15.0625 10.300781 15.351562 11.417969 16.136719 C 9.082031 17.058594 7.527344 19.042969 6.722656 22.125 " fill-opacity="1" fill-rule="nonzero"/></g><g clip-path="url(#d668778bac)"><path fill="#faa231" d="M 6.722656 22.125 L 6.722656 21.929688 L 0.683594 21.929688 L 0.683594 22.125 L 0.875 22.148438 C 1.054688 20.773438 1.359375 19.65625 1.761719 18.757812 C 2.371094 17.40625 3.195312 16.542969 4.167969 16.003906 C 5.144531 15.464844 6.277344 15.257812 7.503906 15.257812 C 8.214844 15.257812 8.898438 15.328125 9.535156 15.492188 C 10.175781 15.660156 10.769531 15.917969 11.304688 16.296875 L 11.417969 16.136719 L 11.347656 15.957031 C 10.148438 16.429688 9.144531 17.179688 8.34375 18.203125 C 7.542969 19.222656 6.945312 20.515625 6.535156 22.074219 L 6.722656 22.125 L 6.722656 21.929688 L 6.722656 22.125 L 6.914062 22.171875 C 7.308594 20.652344 7.890625 19.410156 8.648438 18.441406 C 9.410156 17.46875 10.351562 16.765625 11.488281 16.316406 C 11.554688 16.289062 11.601562 16.230469 11.609375 16.160156 C 11.617188 16.089844 11.585938 16.019531 11.527344 15.976562 C 10.949219 15.570312 10.3125 15.292969 9.632812 15.117188 C 8.957031 14.941406 8.242188 14.871094 7.503906 14.871094 C 6.660156 14.871094 5.84375 14.964844 5.082031 15.203125 C 3.9375 15.554688 2.917969 16.222656 2.125 17.335938 C 1.328125 18.449219 0.761719 19.996094 0.488281 22.097656 C 0.484375 22.152344 0.5 22.210938 0.535156 22.25 C 0.574219 22.292969 0.625 22.316406 0.683594 22.316406 L 6.722656 22.316406 C 6.8125 22.316406 6.890625 22.257812 6.914062 22.171875 L 6.722656 22.125 " fill-opacity="1" fill-rule="nonzero"/></g><path fill="#faa231" d="M 7.503906 5.433594 C 8.574219 5.433594 9.550781 5.828125 10.300781 6.480469 C 9.6875 7.378906 9.328125 8.460938 9.328125 9.628906 C 9.328125 10.828125 9.714844 11.941406 10.359375 12.855469 C 9.605469 13.535156 8.605469 13.957031 7.503906 13.957031 C 5.144531 13.957031 3.234375 12.046875 3.234375 9.695312 C 3.234375 7.339844 5.144531 5.433594 7.503906 5.433594 " fill-opacity="1" fill-rule="nonzero"/><path fill="#faa231" d="M 7.503906 5.433594 L 7.503906 5.625 C 8.527344 5.625 9.457031 6.003906 10.175781 6.628906 L 10.300781 6.480469 L 10.140625 6.371094 C 9.507812 7.300781 9.132812 8.421875 9.132812 9.628906 C 9.132812 10.871094 9.53125 12.023438 10.203125 12.964844 L 10.359375 12.855469 L 10.230469 12.710938 C 9.507812 13.363281 8.554688 13.761719 7.503906 13.761719 C 6.378906 13.761719 5.359375 13.308594 4.621094 12.570312 C 3.882812 11.832031 3.429688 10.816406 3.429688 9.695312 C 3.429688 8.570312 3.882812 7.554688 4.621094 6.816406 C 5.359375 6.082031 6.378906 5.625 7.503906 5.625 L 7.503906 5.238281 C 5.039062 5.238281 3.039062 7.234375 3.039062 9.695312 C 3.039062 12.15625 5.039062 14.148438 7.503906 14.148438 C 8.652344 14.148438 9.699219 13.710938 10.492188 12.996094 C 10.5625 12.933594 10.578125 12.820312 10.519531 12.742188 C 9.894531 11.859375 9.523438 10.789062 9.523438 9.628906 C 9.523438 8.5 9.871094 7.457031 10.460938 6.589844 C 10.519531 6.507812 10.503906 6.398438 10.429688 6.335938 C 9.648438 5.652344 8.625 5.238281 7.503906 5.238281 L 7.503906 5.433594 " fill-opacity="1" fill-rule="nonzero"/><g clip-path="url(#48be837c34)"><path fill="#faa231" d="M 23.140625 24.464844 C 22.28125 17.835938 18.964844 16.039062 15 16.039062 C 11.035156 16.039062 7.71875 17.835938 6.859375 24.464844 L 23.140625 24.464844 " fill-opacity="1" fill-rule="nonzero"/></g><g clip-path="url(#b5111dd046)"><path fill="#faa231" d="M 23.140625 24.464844 L 23.332031 24.4375 C 23.117188 22.765625 22.746094 21.394531 22.242188 20.273438 C 21.488281 18.589844 20.433594 17.472656 19.183594 16.785156 C 17.9375 16.101562 16.507812 15.84375 15 15.84375 C 13.992188 15.84375 13.023438 15.957031 12.117188 16.238281 C 10.761719 16.65625 9.550781 17.453125 8.609375 18.773438 C 7.667969 20.09375 6.992188 21.933594 6.667969 24.4375 C 6.660156 24.496094 6.675781 24.550781 6.710938 24.59375 C 6.75 24.632812 6.800781 24.65625 6.859375 24.65625 L 23.140625 24.65625 C 23.199219 24.65625 23.25 24.632812 23.289062 24.59375 C 23.324219 24.550781 23.339844 24.496094 23.332031 24.4375 L 23.140625 24.464844 L 23.140625 24.269531 L 6.859375 24.269531 L 6.859375 24.464844 L 7.050781 24.488281 C 7.265625 22.847656 7.628906 21.511719 8.113281 20.429688 C 8.839844 18.8125 9.832031 17.773438 11 17.125 C 12.171875 16.480469 13.535156 16.230469 15 16.230469 C 15.976562 16.230469 16.90625 16.34375 17.765625 16.609375 C 19.054688 17.007812 20.179688 17.746094 21.074219 18.996094 C 21.96875 20.25 22.628906 22.023438 22.949219 24.488281 L 23.140625 24.464844 L 23.140625 24.269531 L 23.140625 24.464844 " fill-opacity="1" fill-rule="nonzero"/></g><g clip-path="url(#d0c441ca1c)"><path fill="#faa231" d="M 20.09375 9.628906 C 20.09375 12.4375 17.8125 14.714844 15 14.714844 C 12.183594 14.714844 9.90625 12.4375 9.90625 9.628906 C 9.90625 6.820312 12.183594 4.542969 15 4.542969 C 17.8125 4.542969 20.09375 6.820312 20.09375 9.628906 " fill-opacity="1" fill-rule="nonzero"/><path fill="#faa231" d="M 20.09375 9.628906 L 19.902344 9.628906 C 19.902344 10.980469 19.351562 12.203125 18.464844 13.089844 C 17.578125 13.972656 16.355469 14.523438 15 14.523438 C 13.644531 14.523438 12.421875 13.972656 11.535156 13.089844 C 10.648438 12.203125 10.097656 10.980469 10.097656 9.628906 C 10.097656 8.277344 10.648438 7.054688 11.535156 6.167969 C 12.421875 5.28125 13.644531 4.734375 15 4.734375 C 16.355469 4.734375 17.578125 5.28125 18.464844 6.167969 C 19.351562 7.054688 19.902344 8.277344 19.902344 9.628906 L 20.289062 9.628906 C 20.289062 6.710938 17.921875 4.347656 15 4.347656 C 12.078125 4.347656 9.710938 6.710938 9.710938 9.628906 C 9.710938 12.546875 12.078125 14.910156 15 14.910156 C 17.921875 14.910156 20.289062 12.546875 20.289062 9.628906 L 20.09375 9.628906 " fill-opacity="1" fill-rule="nonzero"/></g></svg>