<svg xmlns="http://www.w3.org/2000/svg" xmlns:xlink="http://www.w3.org/1999/xlink" width="40" zoomAndPan="magnify" viewBox="0 0 30 30.000001" height="40" preserveAspectRatio="xMidYMid meet" version="1.0"><defs><clipPath id="753f5480b9"><path d="M 0.484375 0 L 29.515625 0 L 29.515625 29.03125 L 0.484375 29.03125 Z M 0.484375 0 " clip-rule="nonzero"/></clipPath><clipPath id="9d076ea992"><path d="M 0.484375 0 L 29.515625 0 L 29.515625 29.03125 L 0.484375 29.03125 Z M 0.484375 0 " clip-rule="nonzero"/></clipPath><clipPath id="57a6b28af9"><path d="M 16 16 L 29.515625 16 L 29.515625 29.03125 L 16 29.03125 Z M 16 16 " clip-rule="nonzero"/></clipPath></defs><g clip-path="url(#753f5480b9)"><path fill="#ffffff" d="M 0.484375 0 L 29.515625 0 L 29.515625 36.289062 L 0.484375 36.289062 Z M 0.484375 0 " fill-opacity="1" fill-rule="nonzero"/><path fill="#ffffff" d="M 0.484375 0 L 29.515625 0 L 29.515625 29.03125 L 0.484375 29.03125 Z M 0.484375 0 " fill-opacity="1" fill-rule="nonzero"/><path fill="#ffffff" d="M 0.484375 0 L 29.515625 0 L 29.515625 29.03125 L 0.484375 29.03125 Z M 0.484375 0 " fill-opacity="1" fill-rule="nonzero"/></g><path fill="#3189c8" d="M 14.878906 4.292969 C 11.644531 4.292969 9.015625 6.945312 9.015625 10.210938 C 9.015625 13.472656 11.644531 16.128906 14.878906 16.128906 C 18.109375 16.128906 20.738281 13.472656 20.738281 10.210938 C 20.738281 6.945312 18.109375 4.292969 14.878906 4.292969 Z M 14.878906 4.292969 " fill-opacity="1" fill-rule="nonzero"/><g clip-path="url(#9d076ea992)"><path fill="#3189c8" d="M 14.878906 0 C 6.945312 0 0.496094 6.511719 0.496094 14.515625 C 0.496094 22.519531 6.945312 29.03125 14.878906 29.03125 C 15.800781 29.03125 16.707031 28.945312 17.601562 28.769531 C 15.957031 27.246094 14.925781 25.058594 14.925781 22.628906 C 14.925781 20.894531 15.453125 19.28125 16.355469 17.945312 C 15.871094 17.875 15.375 17.839844 14.878906 17.839844 C 11.09375 17.839844 7.652344 19.867188 5.777344 23.101562 C 3.695312 20.851562 2.414062 17.832031 2.414062 14.515625 C 2.414062 7.578125 8.003906 1.933594 14.878906 1.933594 C 21.75 1.933594 27.339844 7.578125 27.339844 14.515625 C 27.339844 14.816406 27.332031 15.113281 27.308594 15.410156 C 27.957031 15.792969 28.554688 16.257812 29.082031 16.796875 C 29.199219 16.046875 29.257812 15.285156 29.257812 14.515625 C 29.257812 6.511719 22.804688 0 14.878906 0 Z M 14.878906 0 " fill-opacity="1" fill-rule="nonzero"/></g><g clip-path="url(#57a6b28af9)"><path fill="#3189c8" d="M 23.1875 16.230469 C 19.6875 16.230469 16.84375 19.101562 16.84375 22.632812 C 16.84375 26.160156 19.6875 29.03125 23.1875 29.03125 C 26.683594 29.03125 29.527344 26.160156 29.527344 22.632812 C 29.527344 19.101562 26.683594 16.230469 23.1875 16.230469 Z M 25.730469 22.15625 L 23.429688 24.476562 C 23.25 24.65625 23.003906 24.757812 22.75 24.757812 C 22.496094 24.757812 22.253906 24.65625 22.074219 24.476562 L 20.640625 23.03125 C 20.265625 22.652344 20.265625 22.039062 20.640625 21.660156 C 21.015625 21.285156 21.625 21.285156 21.996094 21.660156 L 22.75 22.421875 L 24.371094 20.785156 C 24.746094 20.40625 25.355469 20.40625 25.730469 20.785156 C 26.101562 21.164062 26.101562 21.777344 25.730469 22.15625 Z M 25.730469 22.15625 " fill-opacity="1" fill-rule="nonzero"/></g></svg>